<svg xmlns="http://www.w3.org/2000/svg" xmlns:xlink="http://www.w3.org/1999/xlink" width="24" height="24" viewBox="0 0 24 24">
    <defs>
        <path id="sbvzhbksoa" d="M13 9.885v.963c0 .266-.216.482-.481.482H4.494c-.266 0-.482-.216-.482-.482v-.963c0-.265.216-.481.482-.481h8.025c.265 0 .481.216.481.481zm0-3.851v.963c0 .265-.216.481-.481.481H4.494c-.266 0-.482-.216-.482-.481v-.963c0-.266.216-.482.482-.482h8.025c.265 0 .481.216.481.482zm0-3.852v.963c0 .266-.216.481-.481.481H4.494c-.266 0-.482-.215-.482-.481v-.963c0-.266.216-.482.482-.482h8.025c.265 0 .481.216.481.482zm-10.111.481c0 .798-.647 1.445-1.445 1.445C.647 4.108 0 3.46 0 2.663S.647 1.22 1.444 1.22c.798 0 1.445.646 1.445 1.444zm0 3.852c0 .798-.647 1.444-1.445 1.444C.647 7.96 0 7.313 0 6.515c0-.798.647-1.444 1.444-1.444.798 0 1.445.646 1.445 1.444zm0 3.852c0 .798-.647 1.444-1.445 1.444-.797 0-1.444-.646-1.444-1.444 0-.798.647-1.445 1.444-1.445.798 0 1.445.647 1.445 1.445z"/>
    </defs>
    <g fill="none" fill-rule="evenodd">
        <g>
            <g>
                <g>
                    <g transform="translate(-185 -226) translate(165 96) translate(0 117) translate(20 13)">
                        <circle cx="12" cy="12" r="12" fill="#5AC3F5" fill-rule="nonzero"/>
                        <g transform="translate(5 5)">
                            <mask id="78zte6hjrb" fill="#fff">
                                <use xlink:href="#sbvzhbksoa"/>
                            </mask>
                            <use fill="#FFF" fill-opacity="0" fill-rule="nonzero" xlink:href="#sbvzhbksoa"/>
                            <g fill="#FFF" mask="url(#78zte6hjrb)">
                                <path d="M0 0H13V13H0z"/>
                            </g>
                        </g>
                    </g>
                </g>
            </g>
        </g>
    </g>
</svg>
