<svg xmlns="http://www.w3.org/2000/svg" width="561" height="386" viewBox="0 0 561 386">
    <defs>
        <linearGradient id="w4fgl0y3ba" x1="50.014%" x2="50.014%" y1="99.981%" y2=".024%">
            <stop offset="0%" stop-color="gray" stop-opacity=".25"/>
            <stop offset="54%" stop-color="gray" stop-opacity=".12"/>
            <stop offset="100%" stop-color="gray" stop-opacity=".1"/>
        </linearGradient>
    </defs>
    <g fill="none" fill-rule="evenodd">
        <g>
            <g transform="translate(-780 -209) translate(781 210)">
                <g fill="#5E81F4" fill-rule="nonzero" opacity=".1">
                    <path d="M.01.384c0 75.851 47.63 137.227 106.513 137.227" transform="translate(327 60)"/>
                </g>
                <path fill="#5E81F4" fill-rule="nonzero" d="M328.68 110.455c-34.355.263-67.365-7.503-98.927-16.157-31.563-8.654-62.869-18.386-96.53-22.358-21.666-2.56-46.323-2.156-63.353 7.77-16.388 9.548-21.24 25.2-23.633 39.642-1.802 10.869-2.68 22.271 3.661 32.159 4.38 6.862 11.946 12.495 17.287 19.031 18.578 22.743 7.055 52.011-11.368 75.52-8.638 11.03-18.743 21.611-25.298 33.257-6.556 11.645-9.314 24.816-2.812 36.228 6.449 11.305 21.142 19.425 36.948 24.986 32.112 11.218 69.54 13.452 105.983 14.16 80.674 1.579 161.558-3.22 242.222-8.012 29.849-1.778 59.833-3.565 89.095-8.329 16.247-2.647 32.98-6.527 44.547-14.865 14.689-10.587 17.81-27.734 7.283-39.982-17.66-20.537-64.582-24.126-77.207-46.392-6.949-12.258-.762-26.404 8.255-38.326 19.394-25.564 52.613-48.563 53.414-77.031.534-19.547-16.51-38.5-42.09-46.83-26.829-8.74-63.51-6.21-82.476 10.495-19.535 17.201-54.662 24.806-85.001 25.034z" opacity=".1"/>
                <path fill="#FFF" fill-rule="nonzero" d="M484 62.174v252.204c0 7.502-7.228 13.622-16.147 13.622h-341.71c-8.92 0-16.143-6.1-16.143-13.622V62.174C110 54.657 117.224 47 126.143 47l341.666.832c8.904 0 16.191 6.825 16.191 14.342z"/>
                <path fill="#3F3D56" fill-rule="nonzero" d="M484 62.293V74H110V62.293c0-8.444 6.815-15.29 15.224-15.293h343.522c4.043-.005 7.922 1.604 10.783 4.472C482.39 54.34 484 58.233 484 62.292z"/>
                <circle cx="127.5" cy="60.5" r="5.5" fill="#FA5959" fill-rule="nonzero" opacity=".8"/>
                <circle cx="143.5" cy="60.5" r="5.5" fill="#FED253" fill-rule="nonzero" opacity=".8"/>
                <circle cx="159.5" cy="60.5" r="5.5" fill="#8CCF4D" fill-rule="nonzero" opacity=".8"/>
                <rect width="34" height="16" x="246" y="130" fill="#5E81F4" fill-rule="nonzero" opacity=".2" rx="8"/>
                <rect width="34" height="16" x="315" y="130" fill="#5E81F4" fill-rule="nonzero" opacity=".2" rx="8"/>
                <path stroke="#3F3D56" d="M263 145.21L296.988 190 332 145"/>
                <rect width="52" height="25" x="271" y="189" fill="#000" fill-rule="nonzero" opacity=".1" rx="8.57"/>
                <rect width="50" height="24" x="272" y="189" fill="#5E81F4" fill-rule="nonzero" rx="8.57"/>
                <path stroke="#3F3D56" d="M263.221 130L262.779 114M352 115L332.017 130 311 115"/>
                <rect width="34" height="16" x="246" y="99" fill="#5E81F4" fill-rule="nonzero" opacity=".2" rx="8"/>
                <rect width="34" height="16" x="335" y="99" fill="#5E81F4" fill-rule="nonzero" opacity=".2" rx="8"/>
                <rect width="34" height="16" x="294" y="99" fill="#5E81F4" fill-rule="nonzero" opacity=".2" rx="8"/>
                <path stroke="#3F3D56" d="M297.066 213L296.934 256"/>
                <path stroke="#3F3D56" d="M249 287L296.903 272 345 286.892"/>
                <rect width="34" height="16" x="280" y="256" fill="#5E81F4" fill-rule="nonzero" opacity=".2" rx="8"/>
                <path fill="#5E81F4" fill-rule="nonzero" d="M427 168h18c4.418 0 8 3.582 8 8s-3.582 8-8 8h-18c-4.418 0-8-3.582-8-8s3.582-8 8-8z" opacity=".2" transform="rotate(90 436 176)"/>
                <path fill="#5E81F4" fill-rule="nonzero" d="M427 221h18c4.418 0 8 3.582 8 8s-3.582 8-8 8h-18c-4.418 0-8-3.582-8-8s3.582-8 8-8z" opacity=".2" transform="rotate(-90 436 229)"/>
                <rect width="34" height="16" x="328" y="286" fill="#5E81F4" fill-rule="nonzero" opacity=".2" rx="8"/>
                <rect width="34" height="16" x="231" y="286" fill="#5E81F4" fill-rule="nonzero" opacity=".2" rx="8" transform="rotate(-180 248 294)"/>
                <rect width="34" height="16" x="280" y="286" fill="#5E81F4" fill-rule="nonzero" opacity=".2" rx="8" transform="rotate(-180 297 294)"/>
                <path stroke="#3F3D56" d="M413 203L428 229M381 202L397 202M322 201L365 202M428 176L413 203"/>
                <path fill="#5E81F4" fill-rule="nonzero" d="M364 194h18c4.418 0 8 3.582 8 8s-3.582 8-8 8h-18c-4.418 0-8-3.582-8-8s3.582-8 8-8z" opacity=".2" transform="rotate(90 373 202)"/>
                <path fill="#5E81F4" fill-rule="nonzero" d="M396 195h18c4.418 0 8 3.582 8 8s-3.582 8-8 8h-18c-4.418 0-8-3.582-8-8s3.582-8 8-8z" opacity=".2" transform="rotate(90 405 203)"/>
                <path fill="#5E81F4" fill-rule="nonzero" d="M148 168h18c4.418 0 8 3.582 8 8s-3.582 8-8 8h-18c-4.418 0-8-3.582-8-8s3.582-8 8-8z" opacity=".2" transform="rotate(90 157 176)"/>
                <path fill="#5E81F4" fill-rule="nonzero" d="M148 221h18c4.418 0 8 3.582 8 8s-3.582 8-8 8h-18c-4.418 0-8-3.582-8-8s3.582-8 8-8z" opacity=".2" transform="rotate(-90 157 229)"/>
                <path stroke="#3F3D56" d="M181 203L166 229M213 202L197 202M272 201L229 202M165 176L180 203"/>
                <path fill="#5E81F4" fill-rule="nonzero" d="M211 194h18c4.418 0 8 3.582 8 8s-3.582 8-8 8h-18c-4.418 0-8-3.582-8-8s3.582-8 8-8z" opacity=".2" transform="rotate(90 220 202)"/>
                <path fill="#5E81F4" fill-rule="nonzero" d="M180 195h18c4.418 0 8 3.582 8 8s-3.582 8-8 8h-18c-4.418 0-8-3.582-8-8s3.582-8 8-8z" opacity=".2" transform="rotate(90 189 203)"/>
                <path fill="#46455B" fill-rule="nonzero" d="M76 291c0 24.319 15.208 44 34 44"/>
                <path fill="#5E81F4" fill-rule="nonzero" d="M111 335c0-24.874 16.997-45 38-45M89 293c0 23.213 9.842 42 22 42"/>
                <path fill="#46455B" fill-rule="nonzero" d="M111 335c0-31.507 19.681-57 44-57"/>
                <ellipse cx="109.5" cy="342.5" fill="#5E81F4" fill-rule="nonzero" opacity=".1" rx="8.5" ry="1.5"/>
                <path fill="#A8A8A8" fill-rule="nonzero" d="M103 335.574s4.842-.148 6.295-1.168c1.453-1.02 7.443-2.245 7.806-.605.363 1.64 7.264 8.155 1.807 8.197-5.458.043-12.697-.838-14.15-1.71-1.453-.873-1.758-4.714-1.758-4.714z"/>
                <path fill="#000" fill-rule="nonzero" d="M119.004 341.38c-5.46.047-12.688-.908-14.145-1.863-1.109-.722-1.55-3.318-1.7-4.517H103s.305 4.184 1.762 5.135c1.457.95 8.685 1.91 14.146 1.863 1.578 0 2.12-.617 2.09-1.505-.217.545-.817.877-1.994.888z" opacity=".2"/>
                <path fill="url(#w4fgl0y3ba)" fill-rule="nonzero" d="M487.999 361.74l-13.4-19.467s-.253-4.817-1.13-5.948c-.876-1.13-.188-3.63-.188-3.63s.94-1.377.126-1.498c-.814-.122-.126-3.193-.126-3.193l-.063-4.886s.75-4.692.126-5.822c-.373-.623-.348-1.406.063-2.004 0 0 .75-2.693 0-3.396-.75-.704-.567-4.881-.378-8.195.189-3.314-1.312-5.197-1.312-5.696 0-.5-4.95-5.386-4.95-5.823 0-.436-3.128-2.25-5.008-2.756-1.879-.504-2.818-.873-2.755-1.125.063-.252-2.945-1.252-2.945-1.252s-2.63-.184-3.632-1.5c-1.003-1.314-4.068-1.697-4.15-1.707 0-.087-.044-.175-.059-.262l-.058-.282c.238-.397.456-.805.654-1.227l.174-.383c1.103.003 2.179-.336 3.08-.97.894-.75 1.438-1.838 1.502-3.004.052-1.156-.2-2.306-.731-3.333-.552-1.13-1.356-2.295-1.08-3.518.12-.529.435-.97.6-1.509.242-1.01.08-2.073-.45-2.964-.485-.908-1.134-1.708-1.661-2.591-.675-1.122-1.124-2.365-1.323-3.659-.04-.688-.205-1.363-.484-1.994-.283-.444-.658-.823-1.1-1.11-1.958-1.404-4.324-2.121-6.731-2.044-1.705.059-3.39.52-5.095.311-1.012-.179-2.008-.44-2.978-.781-2.097-.621-4.524-.878-6.35.325-1.825 1.203-2.557 3.57-3.796 5.424-1.1 1.64-2.703 3.013-3.536 4.75 0-.034 0-.068.024-.102-.208.403-.37.828-.484 1.267-.32 1.363-.053 2.79.276 4.148.175.704.407 1.456 1.012 1.854.606.397 1.453.305 2.19.431-.03.122-.059.238-.083.36-1.558 7.314 2.768 14.597 9.928 16.714v.379c0 .373-.029.732-.068 1.077 0 0-6.295-1.296-7.986-.422-1.69.873-5.012 1.567-5.511 2.067-.499.5-1.753.126-2.882 3.066-1.128 2.94-1.25 5.949-2.692 7.322-1.444 1.373-2.19 2.319-2.252 3.318-.063 1 .184 1.252-.378 1.567-.562.316-1.375 1.626-1.128 2.126 0 0 .314 1.251-.688 1.877-.603.427-.937 1.14-.877 1.878 0 0-.378 1.378-1.254 1.688-.877.311-1.453 2.383-1.453 2.383l-2.838 3.27-5.632-6.24c-.879-.97-2.375-1.046-3.347-.17l-2.717 2.524c-1.067.258-2.03.833-2.765 1.65-.608.618-1.1 1.341-1.453 2.134l-1.511 1.368c-.478.426-.76 1.03-.78 1.67-.401.86-.246 1.878.392 2.58l3.604 3.999v.034c-1.28.106-2.497.602-3.487 1.421-5.386 4.755-5.449 9.136-4.635 11.16.814 2.023 7.637 9.703 7.637 9.703s3.967 5.168 9.686 7.914l-.038.043c-.117.122-.228.253-.34.393l-.091.122-.088.121-.101.15-.078.122-.111.18c-.02.041-.043.082-.068.12-.044.078-.087.16-.126.243l-.043.083c-.054.106-.102.223-.155.34-.054.116-.034.087-.049.125-.014.04-.068.165-.097.253l-.058.16c-.029.077-.053.16-.082.242-.03.083-.034.117-.053.18l-.073.272-.044.17c-.038.145-.068.295-.101.45l-.03.18c0 .102-.038.209-.053.32-.014.112-.024.15-.034.229-.01.077 0 .203-.038.31-.04.107 0 .16-.025.238-.024.077 0 .238 0 .359v.218c0 .194 0 .398-.024.607-.126 7.321.3 8.384.3 8.384s.887 2.334 3.328 2.498c.357.026.717.006 1.07-.058 3.254-.563 10.897-1.877 13.59-1.373 1.617.301 4.615-.145 6.746-.548l.566-.112.388 1.247 1.24-.34 1.05.607.664.383c1.235 4.197 6.252 2.766 6.252 2.766l1.192.689 12.107.31c1.357.825 2.791 1.516 4.281 2.063.199.058.401.102.606.13 1.12.09 2.243.11 3.366.064.93 0 1.646-.063 1.646-.063s-.126-3.285-.3-6.968c4.615-.194 8.717-.485 11.192-.917 6.422-1.135 9.11-7.035 10.103-10.18.296 1.28.506 2.576.63 3.882.263 1.152.598 2.287 1.002 3.397.354.889.818 1.73 1.38 2.503 4.76-1.625 1.88-4.066.877-5.128-1.003-1.063.687-1.94.687-1.94s1.318-.88 1.192-1.694c-.126-.815-.19-1.689 4.068-1.626 4.257.063 4.073-3.503 4.073-3.503zm-66.127-39.966c.054.36.65 4.212 1.187 5.226.149.676.196 1.371.14 2.062-2.523-.2-5.153-.31-5.153-.31.077.092.124.205.136.324l-.397-.092c-.184-.044-.378-.087-.576-.14l4.649-7.08.014.01zm-9.201 14.677l4.358.694.369.058c-.125.683-.201 1.374-.228 2.067 0 .063.097.14.237.233-.059.341-.086.687-.082 1.033.068.35 2.111 1.097 4.455 1.718-.033.126-.067.243-.096.36-2.068-1.093-5.328-1.602-5.705-2.427-.378-.825-11.435-4.672-11.435-4.672s-.407-.219-1.104-.553l2.906.553.804-.083c1.813.458 3.654.798 5.511 1.02h.01z"/>
                <path fill="#65617D" fill-rule="nonzero" d="M473.958 364.613s-1.74 10.55-10.562 12.113c-8.82 1.564-38.26 1.248-38.26 1.248s-16.833-2.437-22.92-16.733c-6.088-14.296-10-19.978-4.785-20.236 5.216-.258 33.356 9.555 34.97 9.682 1.614.127 43.108-21.732 41.557 13.926z"/>
                <path fill="#000" fill-rule="nonzero" d="M473.958 364.613s-1.74 10.55-10.562 12.113c-8.82 1.564-38.26 1.248-38.26 1.248s-16.833-2.437-22.92-16.733c-6.088-14.296-10-19.978-4.785-20.236 5.216-.258 33.356 9.555 34.97 9.682 1.614.127 43.108-21.732 41.557 13.926z" opacity=".05"/>
                <path fill="#3F3D56" fill-rule="nonzero" d="M395.314 376.56s.869 2.264 3.263 2.43c.351.024.704.005 1.05-.057 3.2-.55 10.7-1.827 13.343-1.338 1.593.29 4.534-.142 6.631-.531 1.391-.261 2.399-.503 2.399-.503s-2.457-8.065-2.768-8.331c-.312-.266-11.064-6.642-11.064-6.642l-8.536-.588c-1.142.174-2.172.775-2.878 1.68-.898 1.076-1.67 2.846-1.723 5.74-.149 7.106.283 8.14.283 8.14z"/>
                <path fill="#000" fill-rule="nonzero" d="M394.338 376.567s.93 2.267 3.495 2.433c-.894-1.064-1.72-2.175-2.477-3.326l.046-5.907c-.374-3.285.961-6.538 3.598-8.767h-.036s-4.805.304-4.94 7.432c-.133 7.128.314 8.135.314 8.135z" opacity=".05"/>
                <path fill="#000" fill-rule="nonzero" d="M432.077 364l8.132-6.322L453 345.156s-1.382-.068-3.468-.156c-.492.327-1.968 1.358-2.027 2.614-.06 1.534-3.444.107-5.225.977-1.78.87-10.38 11.862-11.895 11.784-1.516-.078-2.711-.762-3.34.303l-.045.068 5.077 3.254zM396 362.668c.291.132.588.265.884.388 6.202 2.542 13.862 7.872 14.43 8.84.35.591 4.79 3.171 8.217 5.104 1.432-.26 2.469-.5 2.469-.5s-2.528-8.034-2.85-8.299c-.32-.264-11.387-6.615-11.387-6.615l-8.8-.586c-1.175.172-2.235.77-2.963 1.668z" opacity=".1"/>
                <path fill="#65617D" fill-rule="nonzero" d="M379.376 344.573c.816 1.99 7.641 9.634 7.641 9.634s4.319 5.598 10.455 8.208c6.136 2.61 13.709 8.081 14.275 9.076.362.64 5.252 3.565 8.696 5.574l.772.446 1.71.97.904.519s2.096-1.674 4.187-3.357c2.09-1.683 4.108-3.327 4.143-3.395.058-.185.874-2.3.684-2.426-.098-.063-.528-.926-1.315-1.94-.841-1.11-1.934-2.007-3.19-2.62-2.882-1.305-4.133-4.278-4.133-4.278s-.273-.194-.689-.456c-.853-.586-1.81-1.009-2.819-1.247-1.377-.17-3.942-2.969-3.942-2.969s-1.754-1.12-2.443-2.546c-.689-1.426-10.367-7.985-11.266-8.6l23.538 15.013 5.633 3.594 8.08-6.277L453 345.063s-1.71-.082-4.192-.189c-6.18-.267-17.148-.684-18.535-.373-1.12.26-2.275.335-3.42.223 0 0-3.127.14-5.193-.941-2.067-1.082-5.325-1.591-5.701-2.392-.377-.8-11.457-4.661-11.457-4.661s-15.086-7.956-20.475-3.231c-5.388 4.725-5.462 9.086-4.65 11.074z"/>
                <path fill="#EE8E9E" fill-rule="nonzero" d="M428 298.477l1.952 6.421 2.505 14.479 9.19.623 2.666-4.382 2.655-4.381s1.655-5.842 2.846-11.509c1.05-5.005 1.738-9.863.595-10.389-1.015-.487-1.684-2.157-2.118-3.968-.054-.224-.107-.452-.151-.676-.305-1.537-.509-3.092-.61-4.655 0 0-19.266-.998-16.596 6.928.481 1.352.727 2.776.727 4.211-.005.358-.028.716-.068 1.071-.277 2.484-1.58 4.74-3.593 6.227z"/>
                <path fill="#E3E8F4" fill-rule="nonzero" d="M423 298.196l.701 10.908 1.58 9.293 1.773 4.301 1.58 23.539s15.26 1.737 18.973-.03c.267-.112.499-.291.672-.52 4.479-6.666 3.012-25.981 3.012-25.981l1.709-12.47-1.14-6.47-2.751-.293-2.119-.219s-.494.58-1.17 1.46c-1.877 2.433-5.329 7.24-5.097 9.244.317 2.744-.38 5.546-1.481 5.984-1.101.438-1.975 1.188-2.148.438-.173-.749-.38-.934-.193-1.995.188-1.06-.824-4.305-.824-4.305s-1.71-3.8-1.58-5.425c.128-1.625-.188-3.489-.697-3.927-.509-.437-1.2-.87-.632-2.865S430.674 293 430.674 293L423 298.196z"/>
                <path fill="#000" fill-rule="nonzero" d="M443.026 325.39l.656 18.618 3.764 1.992c.273-.112.511-.29.691-.515 4.614-6.661 3.103-25.95 3.103-25.95l1.76-12.453-1.175-6.462-2.833-.292c1.094-4.994 1.81-9.843.62-10.368-1.057-.486-1.754-2.153-2.207-3.96l-2.035 13.172s.168 1.19.23 2.43c.082.775.027 1.559-.163 2.317-.458 1.122-.133 3.114-.133 3.114-1.175 1.978-1.765 5.641-2.034 9.178-.387 4.694-.244 9.178-.244 9.178z" opacity=".1"/>
                <path fill="#3F3D56" fill-rule="nonzero" d="M447.876 286s3.108.387 4.094 1.695c.986 1.307 3.575 1.486 3.575 1.486s2.958.968 2.886 1.24c-.072.27.861.624 2.709 1.118 1.847.494 4.936 2.295 4.936 2.73 0 .436 4.893 5.273 4.893 5.772 0 .499 1.481 2.358 1.294 5.645-.188 3.288-.37 7.447.37 8.13.741.682 0 3.35 0 3.35-.407.592-.431 1.369-.062 1.985.615 1.119-.12 5.772-.12 5.772l.057 4.841s-.678 3.04.125 3.167c.804.126-.125 1.491-.125 1.491s-.678 2.479.188 3.597c.866 1.119 1.111 5.893 1.111 5.893L487 363.21s.187 3.534-4.008 3.476c-4.195-.058-4.132.804-4.007 1.612.125.809-1.17 1.676-1.17 1.676s-1.664.866-.678 1.936c.987 1.07 3.82 3.477-.866 5.089-.552-.768-1.008-1.603-1.356-2.484-.398-1.095-.727-2.214-.987-3.35 0 0-.433-4.716-1.294-5.326-.861-.61-.74-3.598-.74-3.598s1.236-2.42-.482-3.413c-1.717-.993-26.758-14.956-26.758-14.956l-.626-18.578s-.433-13.711 2.156-18.306c0 0-.308-1.985.125-3.104.433-1.118-.063-4.716-.063-4.716L447.876 286z"/>
                <path fill="#000" fill-rule="nonzero" d="M431.195 292.723s-6.387-1.295-8.101-.419c-1.714.877-5.079 1.558-5.589 2.06-.51.501-1.774.121-2.918 3.057-1.145 2.936-1.269 5.925-2.73 7.302-1.462 1.378-2.225 2.308-2.29 3.306-.064.998.194 1.246-.376 1.563-.57.316-1.397 1.621-1.144 2.118.252.496 13.204 11.48 13.204 11.48s.639 4.181 1.209 5.242c.57 1.062-.635 15.657-1.903 16.66-1.268 1.003 8.572.905 8.572.905s.44-9.58.822-10.077c.381-.497-.253-10.71-.253-10.71s-.064-8.734.763-11.042c.828-2.308.734-9.98.734-9.98s.728-4.606 1.615-5.681c.887-1.076-1.615-5.784-1.615-5.784z" opacity=".1"/>
                <path fill="#3F3D56" fill-rule="nonzero" d="M431.265 292.721s-6.13-1.29-7.778-.419c-1.647.872-4.865 1.553-5.35 2.04-.486.487-1.709.127-2.809 3.058s-1.218 5.93-2.623 7.304c-1.404 1.373-2.132 2.308-2.194 3.306-.062.998.18 1.246-.366 1.558-.548.311-1.343 1.621-1.1 2.123.243.501 12.7 11.5 12.7 11.5s.61 4.178 1.162 5.24c.552 1.06-.615 15.663-1.833 16.661-1.219.998 8.235.906 8.235.906s.428-9.578.795-10.08c.366-.5-.248-10.71-.248-10.71s-.057-8.736.733-11.044.676-10.006.676-10.006.7-4.606 1.552-5.677c.852-1.071-1.552-5.76-1.552-5.76z"/>
                <path fill="#000" fill-rule="nonzero" d="M431.25 287.102c.47 1.377.71 2.829.71 4.291 6.168 1.915 12.792-.814 16.04-6.609-.297-1.565-.496-3.15-.595-4.743 0 0-18.775-1.017-16.154 7.06z" opacity=".1"/>
                <path fill="#EE8E9E" fill-rule="nonzero" d="M421 277.503c.001 7.713 6.04 14.075 13.743 14.477 7.703.402 14.372-5.296 15.177-12.966.805-7.671-4.537-14.63-12.155-15.834-7.619-1.205-14.847 3.765-16.449 11.31-.21.99-.316 2-.316 3.013z"/>
                <path fill="#3F3D56" fill-rule="nonzero" d="M412.347 311l-3.362 1.05s.313 1.234-.677 1.851c-.593.423-.92 1.128-.86 1.856 0 0-.37 1.359-1.229 1.667-.86.309-1.417 2.347-1.417 2.347l-2.833 3.272s-1.042.863-.86 1.297c.183.433-1.109.554-1.109.554l.644 10.998 5.849 1.108 3.63-.371 2.954-1.109 2.584-1.547 1.172-3.026 5.167-7.904L412.347 311z"/>
                <path fill="#EE8E9E" fill-rule="nonzero" d="M400.314 325.815s-7.623-10.991-13.306-5.057c-5.683 5.934 2.31 15.546 4.187 15.235 1.876-.312 10.805-.814 10.805-.814l-1.686-9.364z"/>
                <path fill="#3F3D56" fill-rule="nonzero" d="M376.118 310.465h36.665c.85 0 1.54.69 1.54 1.54v27.782c0 .851-.69 1.54-1.54 1.54H376.12c-.85 0-1.54-.69-1.54-1.54v-27.782c0-.85.689-1.54 1.54-1.54z" transform="rotate(27.04 394.45 325.896)"/>
                <path fill="#5E81F4" fill-rule="nonzero" d="M377.797 313.266L411.203 313.267 411.204 338.441 377.797 338.44z" transform="rotate(27.04 394.5 325.853)"/>
                <circle cx="378.5" cy="317.5" r="1" fill="#E6E8EC" fill-rule="nonzero"/>
                <circle cx="411" cy="334" r="1" fill="#E6E8EC" fill-rule="nonzero"/>
                <path fill="#EE8E9E" fill-rule="nonzero" d="M395 327.907c-.058 8.32 16.912 10.08 16.912 10.08l4.337.698 1.94.315.811-8.133s-.888-.132-1.999-.393c-1.644-.388-3.774-1.062-4.22-2.001-.743-1.574-17.718-8.885-17.781-.566z"/>
                <path fill="#000" fill-rule="nonzero" d="M422 274.162c.392.032.76.202 1.036.482.483.505.483 1.4 1.124 1.709.231.103.488.133.737.086 1.644-.23 2.594-2.084 4.17-2.595.922-.236 1.896-.15 2.762.241.353.107.67.308.916.583.53.683.16 1.69.405 2.513.338 1.146 1.707 1.603 2.893 1.752 1.186.15 2.521.231 3.316 1.127.532.681.747 1.557.589 2.407-.07.29-.07.591 0 .88.327.93 1.928.79 2.347.059.309-.53.217-.963.936-1.117.518-.044 1.04.045 1.513.26 1.257.43 2.581.632 3.91.597 2.318-4.922 1.602-10.735-1.84-14.949-3.444-4.214-9.003-6.08-14.296-4.799-5.292 1.281-9.38 5.482-10.508 10.803l-.01-.039z" opacity=".1"/>
                <path fill="#3F3D56" fill-rule="nonzero" d="M439.53 283.358c-.069-.29-.069-.591 0-.88.16-.845-.056-1.716-.59-2.393-.8-.89-2.143-.958-3.335-1.12-1.192-.163-2.568-.603-2.908-1.742-.247-.819.126-1.819-.407-2.494-.246-.275-.565-.477-.92-.584-.872-.39-1.851-.473-2.777-.239-1.585.507-2.54 2.35-4.192 2.58-.25.046-.51.016-.742-.086-.625-.307-.65-1.197-1.129-1.7-.756-.79-2.186-.277-3.111-.866-.601-.383-.834-1.13-1.003-1.813-.325-1.336-.592-2.733-.272-4.068.538-2.283 2.603-3.829 3.92-5.796 1.232-1.814 1.94-4.111 3.766-5.317 1.827-1.206 4.217-.928 6.3-.316.961.334 1.948.589 2.952.761 1.677.206 3.363-.244 5.054-.301 2.387-.074 4.732.628 6.674 2 .437.284.809.655 1.09 1.091.282.616.446 1.278.485 1.953.2 1.269.645 2.487 1.313 3.59.519.86 1.178 1.64 1.648 2.536.525.874.684 1.916.446 2.905-.16.502-.485.957-.597 1.478-.276 1.197.524 2.34 1.071 3.446.528 1.008.779 2.135.727 3.269-.063 1.141-.603 2.206-1.492 2.938-.92.639-2.021.974-3.145.958-1.363.04-2.721-.165-4.008-.608-.477-.213-1-.302-1.522-.259-.722.144-.63.584-.94 1.11-.417.747-2.026.886-2.355-.033z"/>
                <path fill="#000" fill-rule="nonzero" d="M431.56 364l7.947-6.31L452 345.19s-1.682-.083-4.123-.19c-.485.443-.795 1.05-.874 1.707-.058 1.526-3.364.107-5.103.975-1.74.868-10.153 11.836-11.633 11.768-1.48-.068-2.648-.76-3.263.302l-.043.069c-.252.288-.59.486-.961.565l5.56 3.614z" opacity=".1"/>
                <path fill="#65617D" fill-rule="nonzero" d="M416 362.975l4.049 12.988.633 2.037 1.949-.529 4.248-1.175 18.924-5.226c2.379-.103 4.706-.726 6.82-1.826 3.58-2.012 7.674-2.91 11.762-2.576 2.5.235 5.282-.848 7.59-5.138 0 0 5.243-15.563-7.994-20.02-13.238-4.456-13.866 2.37-13.866 2.37l-.18.113c-.488.328-1.95 1.361-2.008 2.62-.058 1.538-3.41.108-5.174.98-1.764.871-10.329 11.89-11.83 11.812-1.5-.078-2.684-.764-3.308.304l-.044.068c-.463.642-1.856.789-2.772.818h-.867l-.117.034-.975.29-6.84 2.056z"/>
                <path fill="#000" fill-rule="nonzero" d="M417 337.705l2.116.295.884-7.63s-.968-.125-2.18-.37c.318 1.061-.407 5.176-.82 7.705z" opacity=".1"/>
                <path fill="#000" fill-rule="nonzero" d="M467.421 301.19s5.77-1.666 4.356 14.624c-1.413 16.29-12.1 26.587-12.1 26.587s-12.277 5.367-17.8 4.505c-3.163-.508-6.35-.858-9.548-1.05-1.738-.873-3.64-1.378-5.585-1.482-3.097-.12-9.612-2.036-9.737-2.652-.126-.616 1.616-9.685.87-10.364 0 0 8.683.356 9.55.963.866.606 2.11.178 3.039 0 .929-.179 3.784-2.643 9.427-.482 0 0 1.936.183 2.667-.308.73-.49 1.936-.125 1.936-.125.479-.164.933-.392 1.35-.679.184-.245 1.675 0 1.675 0 .179.087.388.09.569.005.18-.084.313-.245.36-.438.194-.506.488-.968.866-1.358 0 0 1.675-9.377 4.84-12.89 0 0 .93-.805.682-1.792-.247-.986 5.14-15.038 12.583-13.064z" opacity=".1"/>
                <path fill="#3F3D56" fill-rule="nonzero" d="M467.423 300.19s5.767-1.666 4.354 14.624c-1.413 16.29-12.095 26.587-12.095 26.587s-12.278 5.367-17.794 4.505c-5.515-.861-9.57-1.05-9.57-1.05-1.735-.873-3.635-1.378-5.577-1.482-3.102-.12-9.609-2.036-9.734-2.652-.126-.616 1.61-9.685.866-10.364 0 0 8.679.356 9.55.963.87.606 2.109.173 3.038 0 .929-.174 3.783-2.648 9.424-.482 0 0 1.935.183 2.666-.308.73-.49 1.935-.125 1.935-.125.478-.163.93-.392 1.345-.679.184-.245 1.674 0 1.674 0 .18.087.388.09.569.005.18-.084.313-.245.36-.438.198-.505.494-.966.87-1.358 0 0 1.675-9.377 4.839-12.89 0 0 .934-.805.682-1.792-.252-.986 5.157-15.038 12.598-13.064z"/>
                <path fill="#000" fill-rule="nonzero" d="M422 361.285l8.233 9.715c.034-.028.053-.047.053-.057.064-.18.871-2.249.687-2.372-.185-.123-1.62-3.164-4.492-4.44-1.456-.695-2.678-1.781-3.522-3.131l-.959.285z" opacity=".1"/>
                <path fill="#000" fill-rule="nonzero" d="M422.176 378.458l.893.542s2.07-1.748 4.135-3.506c2.065-1.758 4.058-3.476 4.092-3.547.058-.192.864-2.401.676-2.533-.097-.066-.522-.968-1.298-2.027-5.54-1.631-2.013 2.407-1.544 2.59 0 0-6.756-1.622-7.113 6.08-.048.804.005 1.611.16 2.4z" opacity=".1"/>
                <path fill="#3F3D56" fill-rule="nonzero" d="M429.351 381.81l1.166.67 11.811.303c1.326.8 2.727 1.47 4.184 2 .194.06.392.105.592.133 1.095.085 2.194.105 3.291.062.908 0 1.605-.062 1.605-.062s-.559-14.82-.955-16.378c-.2-.745-1.194-.579-2.169-.209-.733.296-1.441.652-2.116 1.064 0 0-5.02.475-5.817.917-.798.442-3.057-.247-4.466 0-1.409.247-3.916-1.648-3.916-1.648-6.859-2.251-3 1.947-2.512 2.128 0 0-6.687-1.52-7.036 5.7-.348 7.22 6.338 5.32 6.338 5.32z"/>
                <path fill="#565387" fill-rule="nonzero" d="M447.006 376.089c.139 3.075 2.725 6.893 4.267 8.911.976 0 1.727-.062 1.727-.062s-.601-14.852-1.028-16.414c-.216-.747-1.285-.58-2.334-.21-1.3 2.215-2.745 5.3-2.632 7.775z"/>
                <path fill="#000" fill-rule="nonzero" d="M447.006 376.089c.139 3.075 2.725 6.893 4.267 8.911.976 0 1.727-.062 1.727-.062s-.601-14.852-1.028-16.414c-.216-.747-1.285-.58-2.334-.21-1.3 2.215-2.745 5.3-2.632 7.775z" opacity=".1"/>
                <path fill="#000" fill-rule="nonzero" d="M445.204 376.487c.834 2.962.824 6.285 2.159 8.296.198.06.402.105.608.133 1.125.085 2.253.105 3.38.062.933 0 1.649-.062 1.649-.062s-.574-14.833-.981-16.392c-.206-.747-1.227-.58-2.228-.21-.753.297-1.48.653-2.173 1.065 0 0-3.484 3.314-2.414 7.108z" opacity=".05"/>
                <path fill="#000" fill-rule="nonzero" d="M403 345s5.956 1.982 11 9l-11-9z" opacity=".1"/>
                <g fill="#000" fill-rule="nonzero" opacity=".1">
                    <path d="M33.71 4.704c0 .049 0 .093-.033.137-.06.177-.129.35-.206.52.06-.226.14-.445.24-.657zM.384 1.683c.11-.437.272-.86.479-1.26C.829.53.801.637.772.75.46 2.106.719 3.527 1.045 4.88c.168.701.398 1.46.993 1.85.915.593 2.33.077 3.078.88.48.486.48 1.415 1.117 1.727.23.104.486.135.733.087 1.63-.233 2.58-2.106 4.148-2.622.916-.238 1.885-.153 2.747.243.352.11.667.315.91.594.524.686.16 1.703.399 2.534.34 1.158 1.702 1.616 2.877 1.771 1.174.156 2.507.234 3.298 1.139.53.688.742 1.574.585 2.432-.072.292-.072.598 0 .89.326.934 1.918.798 2.335.059.307-.535.211-.973.93-1.134.516-.04 1.034.052 1.506.268 1.276.443 2.621.647 3.97.603 1.112.017 2.201-.324 3.111-.973.398-.32.724-.72.96-1.177-.209.83-.675 1.57-1.329 2.111-.91.65-2 .99-3.112.973-1.354.036-2.703-.182-3.98-.642-.47-.217-.989-.307-1.505-.263-.714.146-.623.594-.93 1.129-.417.74-2.009.88-2.335-.054-.068-.294-.068-.6 0-.895.157-.858-.055-1.744-.585-2.432-.79-.905-2.119-.973-3.298-1.139-1.18-.165-2.541-.613-2.877-1.77-.244-.832.125-1.85-.403-2.535-.244-.279-.56-.484-.91-.594-.862-.395-1.832-.481-2.748-.243-1.568.516-2.517 2.389-4.147 2.622-.248.048-.504.017-.734-.087-.618-.312-.642-1.216-1.117-1.727-.748-.803-2.162-.282-3.078-.88C1.06 7.233.83 6.474.662 5.778.33 4.461.072 3.041.384 1.683z" transform="translate(418 266)"/>
                </g>
                <path fill="#000" fill-rule="nonzero" d="M453.152 317.99c-1.176 1.537-2.502 2.958-3.558 4.583-1.055 1.625-1.77 3.526-1.556 5.427 1.076-1.067 1.567-2.546 2.247-3.88 1.146-2.27 2.862-4.195 4.313-6.305.276-.398 2.047-2.701 1.151-2.813-.74-.082-2.196 2.464-2.597 2.988z" opacity=".1"/>
            </g>
        </g>
    </g>
</svg>
