<svg xmlns="http://www.w3.org/2000/svg" xmlns:xlink="http://www.w3.org/1999/xlink" width="16" height="16" viewBox="0 0 16 16">
    <defs>
        <path id="p1js73x1qa" d="M10.462 0C7.418 0 4.923 2.495 4.923 5.538c0 .32.053.601.096.885L.173 11.25 0 11.442V16h4.308v-1.846h1.846v-1.846H8V10.48c.726.356 1.572.596 2.462.596 3.043 0 5.538-2.495 5.538-5.539C16 2.495 13.505 0 10.462 0zm0 1.23c2.372 0 4.307 1.936 4.307 4.308 0 2.373-1.935 4.308-4.307 4.308-.746 0-1.512-.219-2.097-.538l-.153-.077H6.769v1.846H4.923v1.846H3.077v1.846H1.23v-2.807l4.865-4.885.23-.212-.057-.327c-.062-.37-.115-.7-.115-1 0-2.372 1.935-4.307 4.308-4.307zm1.23 1.847c-.68 0-1.23.55-1.23 1.23 0 .681.55 1.231 1.23 1.231.68 0 1.231-.55 1.231-1.23 0-.68-.55-1.231-1.23-1.231z"/>
    </defs>
    <g fill="none" fill-rule="evenodd">
        <g>
            <g>
                <g transform="translate(-855 -617) translate(547 597) translate(308 20)">
                    <mask id="sl0ahtlq5b" fill="#fff">
                        <use xlink:href="#p1js73x1qa"/>
                    </mask>
                    <use fill="#000" fill-rule="nonzero" xlink:href="#p1js73x1qa"/>
                    <g fill="#000" fill-opacity=".54" mask="url(#sl0ahtlq5b)">
                        <path d="M0 0H16V16H0z"/>
                    </g>
                </g>
            </g>
        </g>
    </g>
</svg>
