<svg xmlns="http://www.w3.org/2000/svg" xmlns:xlink="http://www.w3.org/1999/xlink" width="16" height="16" viewBox="0 0 16 16">
    <defs>
        <path id="m42eybngea" d="M16 12.167v1.185c0 .327-.265.592-.593.592H5.531c-.327 0-.593-.265-.593-.592v-1.185c0-.328.266-.593.593-.593h9.876c.328 0 .593.265.593.593zm0-4.741V8.61c0 .327-.265.593-.593.593H5.531c-.327 0-.593-.266-.593-.593V7.426c0-.327.266-.593.593-.593h9.876c.328 0 .593.266.593.593zm0-4.74V3.87c0 .328-.265.593-.593.593H5.531c-.327 0-.593-.265-.593-.593V2.685c0-.327.266-.592.593-.592h9.876c.328 0 .593.265.593.592zm-12.444.592c0 .982-.796 1.778-1.778 1.778S0 4.26 0 3.278.796 1.5 1.778 1.5s1.778.796 1.778 1.778zm0 4.74c0 .982-.796 1.778-1.778 1.778S0 9 0 8.02C0 7.037.796 6.24 1.778 6.24s1.778.796 1.778 1.778zm0 4.741c0 .982-.796 1.778-1.778 1.778S0 13.741 0 12.759s.796-1.778 1.778-1.778 1.778.796 1.778 1.778z"/>
    </defs>
    <g fill="none" fill-rule="evenodd">
        <g>
            <g>
                <g>
                    <g transform="translate(-1066 -121) translate(449 96) translate(597 15) translate(20 10)">
                        <mask id="w2envn61cb" fill="#fff">
                            <use xlink:href="#m42eybngea"/>
                        </mask>
                        <use fill="#FFF" fill-opacity="0" fill-rule="nonzero" xlink:href="#m42eybngea"/>
                        <g fill="#249AF3" mask="url(#w2envn61cb)">
                            <path d="M0 0H16V16H0z"/>
                        </g>
                    </g>
                </g>
            </g>
        </g>
    </g>
</svg>
