<svg xmlns="http://www.w3.org/2000/svg" width="200" height="115" viewBox="0 0 200 115">
    <g fill="none" fill-rule="evenodd">
        <g fill-rule="nonzero">
            <g transform="translate(-620 -71) translate(620 71)">
                <path fill="#5E81F4" d="M113.686 24.037c-12.82.098-25.136-2.79-36.914-6.009-11.777-3.219-23.459-6.833-36.028-8.308-8.085-.954-17.286-.804-23.642 2.89-6.115 3.55-7.924 9.37-8.817 14.742-.672 4.042-1 8.283 1.366 11.962 1.644 2.552 4.474 4.647 6.465 7.078 6.933 8.46 2.635 19.347-4.24 28.088-3.22 4.095-6.988 8.036-9.441 12.371-2.454 4.335-3.476 9.231-1.05 13.474 2.407 4.207 7.89 7.236 13.785 9.293 11.977 4.18 25.942 5.003 39.542 5.269 30.103.585 60.284-1.2 90.382-2.982 11.14-.66 22.329-1.324 33.245-3.098 6.063-.984 12.309-2.426 16.625-5.527 5.479-3.937 6.646-10.317 2.718-14.872-6.59-7.638-24.099-8.973-28.81-17.255-2.593-4.558-.284-9.82 3.08-14.252 7.237-9.51 19.63-18.062 19.922-28.652.202-7.27-6.16-14.32-15.705-17.417-10.01-3.25-23.697-2.31-30.774 3.905-7.277 6.389-20.384 9.215-31.709 9.3z" opacity=".1"/>
                <path fill="#57B894" d="M150.278 58.907c-.022 1.543-.101 3.272-.278 5.093l4.965-5.542.035.087c-.406-1.251-1.008-2.444-1.786-3.545l.04.082-2.976 3.825z"/>
                <path fill="#57B894" d="M150.239 59L153 54.88c-.794-1.244-1.744-2.206-2.83-2.793-.057-.03-.113-.059-.17-.087.042.465.272 3.193.239 7zM154.747 70.136c.108-.713.193-1.426.253-2.136l-6.677 5.815-.009-.052c-.1.42-.205.832-.314 1.237l6.73-4.977.017.113zM149 70l5.977-5.803.023.1c-.077-1.793-.356-3.572-.833-5.297l-4.512 5.894c-.156 1.781-.374 3.483-.655 5.106z"/>
                <path fill="#57B894" d="M150 65.106l-8.347-8.008.037-.098c-.677 1.043-1.243 2.15-1.69 3.303L149.498 69c.226-1.36.388-2.672.502-3.894zM148.82 70c.063-.338.124-.674.18-1.008l-9.589-8.892.035-.1c-.158.414-.307.84-.446 1.281l.035-.1L148.819 70z"/>
                <path fill="#57B894" d="M148 73l6.872-5.445.02.104c.108-1.217.135-2.439.08-3.659l-6.285 5.878c-.2 1.08-.43 2.12-.687 3.122zM139.212 70.268L146.687 79c.507-1.145.945-2.32 1.313-3.519L139.004 67c-.02 1.127.036 2.254.166 3.374l.042-.106zM149.766 52.496l.062-.032c-1.597-.754-3.27-.564-4.828.387L149.997 59c.033-3.826-.227-6.466-.23-6.504z"/>
                <path fill="#57B894" d="M147.32 75.467c-.376 1.2-.817 2.38-1.32 3.533l7.542-4.512.015.112c.528-1.032.925-2.128 1.18-3.261.099-.446.186-.892.263-1.339l-7.563 5.088-.116.379zM150 59.614l-5.54-6.514.042-.1c-1.268.76-2.464 1.967-3.502 3.538L149.732 65c.17-1.927.247-3.755.268-5.386z"/>
                <path fill="#57B894" d="M147.94 74.995c.43-1.555.785-3.136 1.06-4.733L139.793 61c-.174.626-.33 1.275-.468 1.948-.19.964-.299 1.946-.325 2.932l8.933 9.12.007-.005zM158.46 84.569c-1.006 1.384-2.17 2.899-3.46 4.431l6.996-1.688-.031.102c.52-1.407.869-2.893 1.035-4.414l-.025.1-4.516 1.469zM161.555 79.162c-.02-.055-.043-.109-.065-.162-.215.348-1.485 2.378-3.49 5l3.95-1.21c.13-1.337.01-2.572-.395-3.628zM147.012 94c-.338.287-.675.564-1.012.832l8.544 1.056-.056.112c.525-.539 1.029-1.095 1.512-1.67l-9.012-.278.024-.052z"/>
                <path fill="#57B894" d="M150 92l8.382-.474-.045.093C159.402 90.19 160.296 88.64 161 87l-7.278 1.519c-1.24 1.263-2.481 2.423-3.722 3.481zM147 93.768l8.688.165-.05.067c.848-.627 1.637-1.295 2.362-2l-8.51.349c-.833.508-1.663.981-2.49 1.419z"/>
                <path fill="#57B894" d="M137.537 99.56l.173-.203c1.716-.387 3.381-.985 4.958-1.78l-.123-6.28c.06-.164.117-.33.172-.496l.131 6.685c1.134-.575 2.232-1.22 3.29-1.93L144.69 83.93l.18-.11 1.444 11.61.008.002c1.277-.869 2.507-1.807 3.686-2.812l-1.507-11.435.175-.149 1.507 11.435c.26-.223.517-.447.769-.672l-1.364-11.585.173-.165 1.365 11.594c1.041-.937 2.004-1.877 2.873-2.775L152.895 77.2l.09-.055c-.312.104-.627.221-.944.35.569-.75 1.073-1.55 1.508-2.39l-6.953 4.231c-.44.993-.943 1.955-1.507 2.88-.123.134-.246.27-.367.41l.017.142-.162.245-.024-.189-.206.249c.823-1.2 1.534-2.475 2.123-3.811l-7.536-8.963c.095.833.222 1.67.37 2.497-.71-1.043-1.556-1.984-2.512-2.796l.06.07-1.365 4.622c.463 1.527.935 3.253 1.351 5.099l2.504-6.79.058.307-2.498 6.773c.383 1.732.682 3.409.896 5.031l3.133-5.756.072.234-3.166 5.82c.137 1.082.236 2.136.296 3.162l3.89-5.95.079.215-3.931 6.014-.024-.043c.022.406.038.808.047 1.204l4.441-5.77.083.208-4.519 5.87c.002.122.005.246.005.368.01 1.17-.043 2.339-.158 3.502l.432-.503c-.077.19-.151.377-.223.562l-.246.286c-.02.173-.04.345-.063.516-.084.221-.164.437-.241.648.062-.396.117-.794.162-1.195L128 88.37c2.842 6.351 7.853 12.255 8.173 12.63.216-.477.41-.966.584-1.465l.176-.029-.06.18-.093.016.08.018c-.123.35-.255.69-.395 1.024.197-.204.493-.52.851-.929 2.267.452 8.347 1.344 13.388-.807l-7.985-1.292c-1.646.833-3.387 1.453-5.182 1.845zm4.963-10.566l.178-.207.006.295-.178.207-.006-.295zM161.931 78.833l.069.015c-.767-1.622-2.187-2.566-4-2.848l.006 8c2.441-2.93 3.904-5.135 3.925-5.167z"/>
                <path fill="#57B894" d="M146.09 95.183c-.997.575-2.028 1.101-3.09 1.576l8.235 1.16-.057.081c1.008-.383 1.957-.88 2.825-1.476.34-.235.672-.477.997-.726L146.404 95l-.313.183zM154.188 88c1.389-1.315 2.64-2.613 3.721-3.8l-.007-8.076.098-.048c-1.47-.193-3.177-.017-5 .521L154.188 88zM136 69.618c-1.213-.845-2.496-1.401-3.798-1.592-.068-.01-.135-.018-.202-.026.192.39 1.303 2.689 2.49 6l1.51-4.382zM136.219 80.182l-10.664-5.08.003-.102c-.315 1.183-.502 2.393-.558 3.612L137 84c-.224-1.348-.494-2.633-.781-3.818z"/>
                <path fill="#57B894" d="M137.854 83.938L126.02 78.11l.002-.111c-.02.463-.026.936-.02 1.419l.002-.112L138 85c-.045-.357-.094-.712-.146-1.062zM137.996 90.252L126 85c.352 1.076.78 2.128 1.282 3.15l.008-.113L137.814 94c.141-1.245.202-2.496.182-3.748zM132.683 68.085l.052-.049c-1.849-.206-3.471.48-4.735 1.83L135 74c-1.193-3.532-2.3-5.881-2.317-5.915zM134.678 74.239l-6.675-4.14.008-.099c-.878 1.012-1.566 2.391-2.011 4.044L136 79c-.408-1.724-.87-3.335-1.322-4.761z"/>
                <path fill="#57B894" d="M137 89.994c-.032-1.538-.145-3.073-.34-4.598L125 80c.012.619.048 1.253.109 1.902.095.929.274 1.846.534 2.742L136.995 90l.005-.006z"/>
                <path fill="#F2F2F2" d="M128.146 62l-34.657-4.381C91.918 44.515 94.29 31.722 98.343 19L133 23.381c-5.23 12.481-6.765 25.363-4.854 38.619z"/>
                <path fill="#5E81F4" d="M102.691 25.039L124.085 25.042 124.085 27.344 102.691 27.34z" transform="rotate(7.184 113.388 26.191)"/>
                <path fill="#5E81F4" d="M97.826 30.52L126.823 30.524 126.823 31.675 97.827 31.671z" opacity=".3" transform="rotate(7.184 112.325 31.098)"/>
                <path fill="#5E81F4" d="M97.362 34.208L126.358 34.213 126.359 35.363 97.362 35.359z" opacity=".3" transform="rotate(7.184 111.86 34.786)"/>
                <path fill="#5E81F4" d="M96.898 37.897L125.894 37.901 125.894 39.052 96.898 39.047z" opacity=".3" transform="rotate(7.184 111.396 38.474)"/>
                <path fill="#5E81F4" d="M96.433 41.585L125.43 41.589 125.43 42.74 96.434 42.735z" opacity=".3" transform="rotate(7.184 110.932 42.162)"/>
                <path fill="#5E81F4" d="M95.969 45.273L124.965 45.278 124.966 46.428 95.969 46.424z" opacity=".3" transform="rotate(7.184 110.467 45.85)"/>
                <path fill="#5E81F4" d="M95.505 48.961L124.501 48.966 124.501 50.116 95.505 50.112z" opacity=".3" transform="rotate(7.184 110.003 49.539)"/>
                <path fill="#5E81F4" d="M95.04 52.65L124.037 52.654 124.037 53.805 95.041 53.8z" opacity=".3" transform="rotate(7.184 109.539 53.227)"/>
                <path fill="#E6E6E6" d="M111.518 49L79 36.01C80.792 22.977 86.331 11.242 93.482 0L126 12.99c-8.232 10.712-12.982 22.745-14.482 36.01z"/>
                <path fill="#5E81F4" d="M95.791 9.603L117.188 9.612 117.189 11.913 95.792 11.904z" transform="rotate(21.842 106.49 10.758)"/>
                <path fill="#5E81F4" d="M89.721 14.654L118.722 14.667 118.722 15.817 89.722 15.805z" opacity=".3" transform="rotate(21.842 104.222 15.236)"/>
                <path fill="#5E81F4" d="M88.34 18.105L117.341 18.117 117.341 19.268 88.34 19.255z" opacity=".3" transform="rotate(21.842 102.84 18.686)"/>
                <path fill="#5E81F4" d="M86.958 21.555L115.959 21.568 115.96 22.718 86.959 22.706z" opacity=".3" transform="rotate(21.842 101.459 22.137)"/>
                <path fill="#5E81F4" d="M85.577 25.006L114.578 25.018 114.578 26.169 85.578 26.156z" opacity=".3" transform="rotate(21.842 100.078 25.587)"/>
                <path fill="#5E81F4" d="M84.196 28.457L113.196 28.469 113.197 29.619 84.196 29.607z" opacity=".3" transform="rotate(21.842 98.696 29.038)"/>
                <path fill="#5E81F4" d="M82.814 31.907L111.815 31.92 111.816 33.07 82.815 33.058z" opacity=".3" transform="rotate(21.842 97.315 32.489)"/>
                <path fill="#5E81F4" d="M81.433 35.358L110.434 35.37 110.434 36.521 81.433 36.508z" opacity=".3" transform="rotate(21.842 95.934 35.94)"/>
                <path fill="#F2F2F2" d="M103 52H68.116c-3.188-12.829-2.43-25.844 0-39H103c-3.627 13.064-3.544 26.063 0 39z"/>
                <path fill="#5E81F4" d="M74 17H95V19H74z"/>
                <path fill="#5E81F4" d="M70 23H99V24H70zM70 27H99V28H70zM70 30H99V31H70zM70 34H99V35H70zM70 38H99V39H70zM70 41H99V42H70zM70 46H99V47H70z" opacity=".3"/>
                <path fill="#3F3D56" d="M79.93 45.02l-11.94-9.333c-.244-.425-.694-.687-1.182-.687h-6.445C59.61 35 59 35.614 59 36.37v57.185C59 96.01 60.98 98 63.421 98h66.158c1.172 0 2.297-.468 3.126-1.302.83-.833 1.295-1.964 1.295-3.143V49.06c0-2.231-1.8-4.04-4.019-4.04h-50.05z"/>
                <path fill="#5E81F4" d="M120 58H132V62H120z"/>
                <path fill="#E3E8F5" d="M37 106s55.265-31.5 122 0"/>
                <path fill="#FBBEBE" d="M49.765 33.531s.588 3.329.176 3.58c-.332.223-.647.475-.941.754l1.059 1.57 2.53.565L55 37.614v-2.387s-.706-1.193-.588-1.947c.117-.753-4.647.251-4.647.251z"/>
                <path fill="#000" d="M49.765 33.531s.588 3.329.176 3.58c-.332.223-.647.475-.941.754l1.059 1.57 2.53.565L55 37.614v-2.387s-.706-1.193-.588-1.947c.117-.753-4.647.251-4.647.251z" opacity=".1"/>
                <path fill="#2F2E41" d="M45 39l-.288.188s-.623.314-.91 3.014c-.289 2.7-.96 9.166-.768 9.354.192.188.096 1.444.096 1.444l1.438-9.857L45 39zM49.48 24.587c-.052.12-.07.258-.119.38-.223.549-.858.426-1.316.634-.388.176-.677.66-.708 1.182-.012.222.017.445 0 .667-.035.408-.228.768-.297 1.17-.168.975.223 2.514.664 1.988.14-.166.313-.276.464-.425.39-.388.589-1.005.906-1.49.04-.07.095-.13.16-.173.232-.125.439.21.622.43.188.224.456.349.736.343.279-.006.542-.142.723-.373.056-.089.125-.166.205-.229.09-.044.19-.055.286-.03.451.086.858.35 1.143.74.153.204.281.443.464.601.184.158.451.21.616.023.332.255.456.797.457 1.291.001.494-.092.985-.07 1.478.023.493.201 1.025.563 1.206.057-.449.27-.857.598-1.138.246-.199.545-.298.753-.558.416-.52.284-1.386.3-2.128.02-.916.312-1.792.363-2.705.026-.457-.017-.947-.238-1.308-.167-.24-.38-.44-.622-.586l-1.965-1.371c-.087-.07-.186-.121-.29-.15-.29-.057-.54.238-.814.368-.229.088-.472.12-.714.094-.762-.022-.977.139-1.49-.401-.08-.09-.195-.131-.31-.113-.306.053-.901.203-1.07.583z"/>
                <path fill="#FBBEBE" d="M50.645 96L52 99.067 49.355 100 48 99.267 48.323 96z"/>
                <path fill="#2F2E41" d="M49.556 98.82s-1.895-1.132-2.24-.736c-.344.396-3.1 3.28-3.1 3.28s-4.25 2.263-.977 2.602c3.273.34 8.614-1.98 8.614-1.98s.288-3.054.058-3.11c-.23-.057-1.206.509-1.666.34-.253-.087-.487-.222-.689-.397z"/>
                <path fill="#FBBEBE" d="M53 99.722L53 102 50 101.333 50.667 99z"/>
                <path fill="#2F2E41" d="M50.928 100.091s3.172-.57 3.46 1.138c.289 1.708 1.038 4.238.289 4.87-.75.633-4.614 1.455-4.672.38-.058-1.075.404-3.162.404-3.162s.288-1.645.115-2.088c-.173-.442.404-1.138.404-1.138z"/>
                <path fill="#2F2E41" d="M44.3 60.012s-2.584 17.189-.466 25.595c2.117 8.407 3.605 13.39 3.605 13.39s3.663-1.08 3.663-1.8c0-.721-1.43-11.41-1.774-12.43-.343-1.021-.916-1.382-.4-2.222.515-.84 1.373-6.245 1.373-6.245s1.889 8.947 2.003 9.187c.115.24-1.202 13.991-1.202 13.991s3.778 2.876 4.007.72c.057-.54 2.575-19.695 2.575-19.935 0-.24 1.03-18.615-.63-19.515-1.66-.9-12.754-.736-12.754-.736z"/>
                <circle cx="52" cy="31" r="4" fill="#FBBEBE"/>
                <path fill="#5E81F4" d="M50.175 38.99v-.414l-1.237-1.957s-1.237.119-1.423.652c-.185.534-2.288 4.803-2.288 4.803L43 61.224s6.124 1.423 7.052.415c.927-1.008 4.453-22.945 4.453-22.945L55 36.026s-.85-1.186-1.043-1.008c-.194.178-3.41 3.617-3.41 3.617l-.062.533-.31-.177z"/>
                <path fill="#2F2E41" d="M49.893 36.054s-1.19-.267-1.576.386c-.386.652-.386.89-.772 1.127-.387.237-2.639 1.304-2.768 1.72-.128.415-2.895 13.523-2.895 13.523s-1.352 3.915-.708 6.584c.643 2.67.193 3.203 1.544 3.44 1.352.238 1.545.238 1.545-.118S46 50.319 47.223 49.489c1.222-.83.9-9.906.9-9.906s1.738-1.957 1.738-2.254c0-.296.29-1.297.032-1.275zM52.741 38.84c.163.028 2.393-2.957 2.569-2.836.175.12 1.05 1.69 1.167 1.69.117 0 5.079 1.266 5.488 3.62.408 2.353-2.86 9.835-2.86 9.835s-1.402 4.284-1.11 6.155c.198 1.424.159 2.873-.117 4.284-.117.482-.525 1.025-.408 1.267.116.241-2.57-.302-3.678.362-1.11.664-6.072 1.146-5.78.422.292-.724.467-3.56 1.285-6.577.817-3.017 2.919-10.137 2.568-10.62-.35-.482.526-7.663.876-7.602z"/>
                <path fill="#2F2E41" d="M61.009 40l.716.734s.825 1.589.715 2.322c-.11.734 2.312 11.798 1.321 12.164-.99.367-3.358 2.2-3.633 2.69-.275.489-.936 1.345-1.376 1.59-.44.244-.88.671-1.156.427-.275-.245-.88-5.257-.44-5.44.44-.184.88-.734 1.32-.734.441 0 .716-.489.716-.917 0-.427-.33-2.995-.33-2.995l-.715-6.051L61.009 40zM50.233 25.411c-.047.084-.064.18-.108.266-.2.384-.772.298-1.184.444-.356.131-.604.453-.637.827-.012.155.015.312-.002.467-.03.286-.204.538-.266.819-.151.682.2 1.76.598 1.392.125-.116.282-.193.417-.298.351-.271.53-.703.815-1.042.038-.051.088-.093.145-.122.209-.087.394.147.56.301.377.329.945.32 1.312-.021.052-.063.115-.117.185-.16.082-.031.171-.039.257-.021.392.053.755.236 1.03.518.123.155.263.296.417.42.165.111.406.148.554.016.3.18.41.559.412.904 0 .346-.083.69-.063 1.035.02.345.18.717.506.844.06-.328.255-.616.538-.796.221-.14.49-.209.678-.39.375-.365.256-.971.27-1.49.018-.642.28-1.255.327-1.894.023-.32-.016-.663-.215-.916-.156-.173-.347-.312-.56-.41l-1.768-.96c-.08-.05-.169-.085-.262-.105-.26-.04-.485.167-.732.258-.208.062-.425.085-.642.066-.686-.016-.88.097-1.34-.281-.078-.064-.18-.092-.28-.079-.275.037-.811.142-.962.408z"/>
            </g>
        </g>
    </g>
</svg>
