<svg xmlns="http://www.w3.org/2000/svg" width="1181" height="1203" viewBox="0 0 1181 1203">
    <g fill="none" fill-rule="evenodd">
        <g fill-rule="nonzero">
            <g>
                <g transform="translate(-803 337) translate(0 -148) translate(803 -189)">
                    <path fill="#1B51E5" d="M320.61 361.984c-27.193-10.34-55.93-18.977-85.266-17.892-43.133 1.592-84.538 25.857-104.815 61.486-17.204 30.188-19.327 65.57-26.738 99.07-9.12 41.269-26.62 80.5-45.305 118.857-10.034 20.606-20.623 41.657-22.27 64.243-2.283 31.36 13.742 62.609 38.875 83.468 25.133 20.86 58.51 31.866 92.011 34.266 17.828 1.277 36.457.092 52.291-7.669 16.753-8.212 28.965-23.05 45.787-31.144 15.587-7.502 33.821-8.55 51.321-7.576 22.85 1.272 45.405 5.759 67.002 13.326 24.46 8.588 47.205 21.032 71.58 29.744 24.374 8.711 51.673 13.573 76.615 6.305 23.449-6.83 41.96-23.414 58.653-40.207 27.293-27.41 52.31-56.996 74.8-88.465 15.063-21.106 29.083-43.372 35.741-67.97 12.737-47.03-4.788-100.089-43.657-132.207-32.205-26.61-75.425-38.159-117.731-45.167-38.58-6.392-83.187-6.787-118.7-23.445-33.864-15.905-64.68-35.512-100.193-49.023z" opacity=".2" transform="rotate(-60 370.5 578)"/>
                    <path fill="#1B51E5" d="M535.046 283.477c-40.04-15.223-82.35-27.94-125.542-26.341-63.507 2.343-124.47 38.067-154.325 90.52-25.33 44.443-28.455 96.534-39.367 145.855-13.428 60.755-39.194 118.514-66.705 174.982-14.773 30.337-30.363 61.328-32.79 94.581-3.36 46.169 20.234 92.174 57.239 122.883 37.005 30.71 86.148 46.914 135.472 50.447 26.248 1.88 53.677.136 76.99-11.29 24.667-12.09 42.647-33.934 67.414-45.851 22.95-11.045 49.797-12.589 75.563-11.154 33.642 1.873 66.852 8.478 98.65 19.62 36.014 12.643 69.503 30.963 105.39 43.788 35.887 12.825 76.081 19.983 112.804 9.283 34.525-10.055 61.781-34.47 86.357-59.194 40.186-40.353 77.018-83.91 110.134-130.24 22.177-31.073 42.82-63.853 52.622-100.067 18.753-69.239-7.05-147.352-64.279-194.638-47.417-39.175-111.05-56.178-173.34-66.496-56.802-9.41-122.48-9.991-174.767-34.515-49.861-23.416-95.234-52.282-147.52-72.173z" opacity=".2" transform="rotate(127 608.5 601.5)"/>
                    <path fill="#AAABB0" d="M386 745.78L386 770 393 770 391.645 744zM286 741.78L286 766 293 766 291.646 740z"/>
                    <rect width="9" height="42" x="394" y="703" fill="#AAABB0" rx="4.5"/>
                    <rect width="9" height="52" x="283" y="694" fill="#AAABB0" rx="4.5"/>
                    <path fill="#AAABB0" d="M415 450.63s8.727-3.668 10.036 0C426.346 454.3 427 486 427 486h-8.295L415 450.63zM319 450.63s-8.728-3.668-10.037 0C307.654 454.3 307 486 307 486h8.29l3.71-35.37zM320.333 418.672L319 446 325 446 325 418z"/>
                    <path fill="#33323D" d="M315 487l1.744-38.58s-.653-8.548 20.03-5.917c20.682 2.63 81.226 7.89 81.226 7.89V487H315zM398 687.732l-3.287 58.15S346.503 772.26 288 747.18l5.259-61.18L398 687.732z"/>
                    <path fill="#444053" d="M352 457.171L353.091 495 421 495 417.057 445z"/>
                    <path fill="#4C4981" d="M296 663H359V743H296z"/>
                    <path fill="#FFB9B9" d="M336.025 695.445s9.223-7.218 10.758-5.033c1.535 2.185-5.481 11.595-8.34 10.5-2.86-1.096-2.418-5.467-2.418-5.467z"/>
                    <path fill="#504F60" d="M172 484H589V692H172z"/>
                    <path fill="#33323D" d="M315.447 416.523s-3.256-30.426 0-34.116c3.256-3.69 57.96-38.686 108.54 2.386 0 0 4.774.222 3.908 11.083-.51 6.874-.476 13.778.105 20.647 0 0-108.86 7.823-112.553 0z"/>
                    <path fill="#000" d="M315.447 416.523s-3.256-30.426 0-34.116c3.256-3.69 57.96-38.686 108.54 2.386 0 0 4.774.222 3.908 11.083-.51 6.874-.476 13.778.105 20.647 0 0-108.86 7.823-112.553 0z" opacity=".1"/>
                    <path fill="#33323D" d="M315.447 421.523s-3.256-30.426 0-34.116c3.256-3.69 57.96-38.686 108.54 2.386 0 0 4.774.222 3.908 11.083-.51 6.874-.476 13.778.105 20.647 0 0-108.86 7.823-112.553 0z"/>
                    <path fill="#4C4981" d="M430.364 407s3.521 13.089 2.424 15.268c-1.096 2.18-.898 8.291-.898 8.291s.238 3.927-1.526 4.359c-1.764.432-3.304.654-1.877 1.963 1.427 1.309 0 3.272 0 3.272s-.773 3.057 0 5.02c.773 1.963-4.518 2.781-4.07 5.235.45 2.454 1.93 9.378 0 9.6-1.928.223.661 8.724-1.076 8.724-1.738 0-2.973 15.268-2.973 15.268s-12.222-10.248-20.368-7.415c0 0 .66-8.507 3.303-11.563 2.643-3.057 1.844-10.903 1.844-10.903l13.107-39.05 12.11-8.069z"/>
                    <path fill="#AE6E79" d="M365.453 586.615c-2.77 3.088-5.756-13.402-5.756-13.402s-7.885 10.959-13.001 3.655c-3.543-5.06-.749-19.397 1.279-27.72.908-3.7 1.675-6.214 1.675-6.214L361.162 541s.038 2.527.294 5.595c.345 4.146 1.093 9.29 2.686 10.521 2.807 2.134 4.086 26.385 1.31 29.499z"/>
                    <path fill="#000" d="M358.796 392.063s-20.483-.215-25.49 10.61c-5.006 10.825-5.228 14.516-7.189 16.244-1.96 1.729 21.346 10.832 21.346 10.832L348.555 467s4.575-4.607 11.98-2.521c7.405 2.086 16.777 0 16.777 0s-.438-.786 5.667 0c6.104.786 25.49-9.39 25.49-9.39s.32-16.295-.112-19.765c-.431-3.47 13.83-28.966 13.83-28.966s11.111-10.611-.431-14.295c0 0-4.085-6.121-14.595-6.063-10.51.059-48.365 6.063-48.365 6.063z" opacity=".1"/>
                    <path fill="#4C4981" d="M359.761 391.063s-20.461-.215-25.462 10.61c-5.001 10.825-5.223 14.516-7.182 16.244-1.959 1.729 21.323 10.832 21.323 10.832L349.53 466s4.57-4.607 11.968-2.521c7.397 2.086 16.76 0 16.76 0s-.438-.786 5.66 0 25.462-9.39 25.462-9.39 7.613-12.345 7.182-15.808c-.431-3.463 15.232-29.675 15.232-29.675s2.396-13.86-9.14-17.543c0 0-4.081-6.121-14.58-6.063-10.498.059-48.313 6.063-48.313 6.063z"/>
                    <path fill="#000" d="M361 546.468c-4.237-1.354-10.885 1.633-13 2.532.876-3.633 1.616-6.101 1.616-6.101l11.1-1.899s.019 2.481.284 5.468z" opacity=".1"/>
                    <path fill="#4C4981" d="M333.885 418h-6.305s-1.305 13.298 0 17.22c1.306 3.924 1.958 3.355 1.521 6.258-.437 2.902 3.048 7.348 3.048 7.348s.43 10.958 2.611 15.037c2.18 4.08-2.395 22.373-2.395 22.373 1.247 3.158 3.094 6.044 5.437 8.5 3.7 3.7 5.659 17.43 4.569 22.66-1.09 5.23 3.048 7.191 3.048 7.191S347.16 549 347.814 549s13.27-6.538 17.186-.876l-3.048-22.445.222-43.366s-4.138-5.452-1.958-10.245c2.18-4.792-1.743-16.129-1.743-16.129l-5.66-25.275L333.886 418z"/>
                    <path fill="#33323D" d="M293.608 761.872s-9.137-1.962-9.353 0c-.215 1.961-10.88 22.014 2.396 27.899 13.276 5.884 48.73 18.522 106.39 2.177 0 0 3.695 1.307 2.827-6.754-.868-8.062-.868-17-.868-17s-8.707-2.4-15.234-1.523c-6.527.876-63.313 12.423-86.158-4.8z"/>
                    <path fill="#000" d="M293.608 761.872s-9.137-1.962-9.353 0c-.215 1.961-10.88 22.014 2.396 27.899 13.276 5.884 48.73 18.522 106.39 2.177 0 0 3.695 1.307 2.827-6.754-.868-8.062-.868-17-.868-17s-8.707-2.4-15.234-1.523c-6.527.876-63.313 12.423-86.158-4.8z" opacity=".1"/>
                    <path fill="#33323D" d="M293.608 758.872s-9.137-1.962-9.353 0c-.215 1.961-10.88 22.014 2.396 27.899 13.276 5.884 48.73 18.522 106.39 2.177 0 0 3.695 1.307 2.827-6.754-.868-8.062-.868-17-.868-17s-8.707-2.4-15.234-1.523c-6.527.876-63.313 12.423-86.158-4.8z"/>
                    <path fill="#444053" d="M347.05 426.298c-.562 3.172-1.834 6.221-2.03 9.432-.196 3.212 1.05 6.864 4.033 8.123.832.247 1.638.573 2.408.973 1.149.772 1.619 2.225 1.86 3.588.32 1.759.397 3.553.228 5.332-.163 1.79-.548 3.718.34 5.281 1.56 2.77 5.625 2.362 8.719 1.583l-1.064 8.194c-.085.649-.137 1.382.34 1.823.454.318 1.019.44 1.565.337 2.69-.168 5.456-.538 7.76-1.946 2.304-1.408 4.02-4.029 3.583-6.67-.51-3.061-3.694-5.494-3.263-8.57.333-2.38 2.675-3.892 4.216-5.721 2.786-3.348 2.936-8.434.75-12.223-2.186-3.789-6.409-6.137-10.755-6.565-2.408-.24-4.914.052-7.179-.779-1.597-.582-2.828-1.873-3.328-3.49"/>
                    <path fill="#767D9F" d="M272 715.902l2.255-5.097s12.174-11.77 14.972-12.595c2.798-.825 14.216-4.42 15.941-4.42 1.725 0 33.175-1.79 33.175-1.79l3.657 8.947-39.468 8.993L289.227 720 272 715.902z"/>
                    <path fill="#FFB9B9" d="M368 582.463l-2.092 16.05-.807 6.18-9.398 1.307s-1.016-2.17-2.453-5.505c-4.36-10.121-12.572-30.99-7.81-34.593 6.328-4.799 7.87 11.115 7.87 11.115l7.214-3.492 7.476 8.938z"/>
                    <path fill="#FFF" d="M319 612H366V683H319z"/>
                    <path fill="#000" d="M319 612H366V683H319z" opacity=".1"/>
                    <path fill="#FFF" d="M334.688 612.159L381.904 612.157 381.9 683.46 334.683 683.462z" transform="rotate(8.41 358.294 647.81)"/>
                    <path fill="#1B51E5" d="M341.738 617.397L366.041 617.396 366.039 654.094 341.736 654.095z" transform="rotate(8.41 353.889 635.745)"/>
                    <path fill="#1B51E5" d="M335.864 664.562L365.309 664.56 365.308 672.53 335.864 672.532z" transform="rotate(8.41 350.586 668.546)"/>
                    <circle cx="378" cy="405" r="27" fill="#000" opacity=".1"/>
                    <circle cx="378" cy="404" r="27" fill="#AE6E79"/>
                    <path fill="#444053" d="M355.665 424.753c-.187-.708-.12-1.458.191-2.121 1.048-2.173 4.031-2.363 6.448-2.252 5.684.263 11.921.296 16.367-3.283 1.844-1.47 3.906-5.166 6.586-4.464 2.384.624 3.379 3.847 5.862 4.563 1.798.519 3.662-.309 5.493-.657 2.634-.518 5.335-.085 8.009-.065 2.674.02 5.578-.486 7.402-2.436 2.464-2.626 2.062-6.73 1.845-10.327-.27-4.648.046-9.31.941-13.88.896-4.542 2.273-9.624-.243-13.517-2.398-3.71-7.364-4.727-10.756-7.57-3.174-2.626-4.854-6.834-8.206-9.27-4.222-3.066-9.958-2.626-15.148-2.094l-11.262 1.194c-2.905.31-5.928.657-8.319 2.384-4.314 3.112-4.907 9.578-8.99 12.986-1.818 1.51-4.143 2.258-6.217 3.388-2.075 1.129-4.077 2.915-4.314 5.252-.198 1.97.87 3.788 1.39 5.685 1.231 4.53-.692 9.192-1.924 13.755-1.231 4.562-1.468 10.104 2.108 13.13.724.617 1.567 1.09 2.272 1.733 2.417 2.2 2.746 5.91 2.187 9.113"/>
                    <ellipse cx="380.5" cy="436" fill="#444053" rx="1" ry="2"/>
                    <ellipse cx="380.5" cy="444" fill="#444053" rx="1" ry="2"/>
                    <path fill="#AE6E79" d="M366.53 587.554c.718-.817 1.195-2.916 1.47-5.685L360 572s3.39 19.133 6.53 15.554z"/>
                    <path fill="#000" d="M375.076 747.336s-12.808 19.607-52.825 17.506c-37.698-1.945-56.099-20.313-55.221-26.797.877-6.483-2.403-22.265 5.67-26.803 4.683-2.626 10.845-1.07 15.193.706 3.066 1.233 6.575.61 9.017-1.601 3.974-3.547 11.387-7.54 23.089-4.396 1.505.397 3.094.368 4.583-.085 4.872-1.471 16.47-4.026 24.884 1.647 2.715 1.853 6.266 1.987 9.115.344l.118-.071c3.929-2.38 22.264 20.1 22.264 20.1s.877 17.291-5.887 19.45z" opacity=".1"/>
                    <path fill="#767D9F" d="M375.076 748.336s-12.808 19.607-52.825 17.506c-37.698-1.945-56.099-20.313-55.221-26.797.877-6.483-2.403-22.265 5.67-26.803 4.683-2.626 10.845-1.07 15.193.706 3.066 1.233 6.575.61 9.017-1.601 3.974-3.547 11.387-7.54 23.089-4.396 1.505.397 3.094.368 4.583-.085 4.872-1.471 16.47-4.026 24.884 1.647 2.715 1.853 6.266 1.987 9.115.344l.118-.071c3.929-2.38 22.264 20.1 22.264 20.1s.877 17.291-5.887 19.45z"/>
                    <circle cx="322" cy="729" r="26" fill="#000" opacity=".1"/>
                    <circle cx="322" cy="730" r="26" fill="#FFB9B9"/>
                    <path fill="#B96B6B" d="M314.679 707.616c-2.758.738-5.476 2.148-6.822 4.465-.812 1.397-1.095 3.074-2.27 4.236-1.662 1.652-4.466 1.684-6.716 2.611-2.25.927-3.734 4.19-1.53 5.222-2.297.118-3.999 2.213-4.282 4.295-.284 2.082.514 4.158 1.286 6.143 2.52 6.423 5.232 13.126 10.787 17.695 9.052 7.455 22.695 7.109 34.855 6.32.993.032 1.978-.193 2.856-.654 1.32-.861 1.485-2.513 1.703-3.962.917-6.188 4.308-11.808 6.524-17.715 2.217-5.908 3.128-12.846-.607-18.075-5.495-7.754-26.535-13.061-35.784-10.58z"/>
                    <path fill="#000" d="M365 598.367l-.765 6.3-8.91 1.333s-.963-2.213-2.325-5.613L364.857 598l.143.367z" opacity=".1"/>
                    <path fill="#767D9F" d="M374.649 735l5.34-6.312-1.07-34.813c.527-2.512.884-5.057 1.07-7.618.211-3.701-2.67-11.965-2.67-11.965.447-1.655 1.054-3.26 1.812-4.792 1.28-2.611-1.806-8.486-1.806-8.486s-4.597-15.23-2.676-22.847c1.92-7.618-.468-11.966-.468-11.966s-1.876-8.486-1.665-11.965c.212-3.48-4.27-6.75-4.27-6.75L364.831 599l-13.658 2.611v29.375s.851 28.07 0 33.514c-.852 5.444 1.703 10.66 1.703 10.66s-1.492 8.049-.211 11.097c1.28 3.048 3.842 10.444 3.842 10.444-.476 2.644-.329 5.364.429 7.938 1.28 3.812 0 5.986 0 5.986L374.649 735z"/>
                    <g fill="#000" opacity=".1">
                        <path d="M74.421 7.406c-.739 3.763-1.07 7.592-.99 11.423.057-3.186.397-6.36 1.016-9.488.577-2.855 1.31-5.927 1.153-8.775-.241 2.302-.635 4.587-1.179 6.84zM5.176 33.943c-.701-.643-1.54-1.093-2.26-1.704-1.914-1.6-2.72-3.921-2.877-6.428-.19 3.214.479 6.325 2.877 8.357.72.61 1.559 1.073 2.26 1.703 1.465 1.423 2.315 3.346 2.372 5.368.19-2.7-.367-5.509-2.372-7.296zM3.086 9.939C3.2 8.58 3.08 7.214 2.732 5.895c-.38-1.376-1.061-2.72-1.31-4.101 0 .147-.053.302-.072.462-.19 1.929.871 3.71 1.382 5.568.188.691.307 1.4.354 2.115zM71.65 31.108c-1.815 1.928-4.704 2.404-7.364 2.385-2.66-.02-5.353-.444-7.967.07-1.822.36-3.676 1.164-5.465.643-2.47-.7-3.459-3.857-5.824-4.467-2.693-.695-4.743 2.925-6.552 4.365-4.422 3.471-10.627 3.439-16.28 3.214-2.405-.11-5.373.077-6.408 2.211-.316.647-.384 1.385-.19 2.077L7.593 42.84c-.03.647-.102 1.29-.216 1.929l8.223-1.286c-.194-.692-.126-1.43.19-2.077 1.035-2.134 4.003-2.32 6.407-2.211 5.654.257 11.859.29 16.281-3.214 1.835-1.44 3.885-5.06 6.552-4.365 2.365.604 3.354 3.767 5.824 4.468 1.79.501 3.643-.303 5.465-.643 2.62-.515 5.307-.09 7.967-.071 2.66.02 5.549-.476 7.364-2.385 1.814-1.91 2.077-4.757 1.965-7.534-.078 2.153-.53 4.146-1.965 5.657z" transform="translate(340 381)"/>
                    </g>
                    <g fill="#000" opacity=".1">
                        <path d="M5.688 6.22c-.762-.409-1.562-.74-2.388-.99C1.896 4.58.781 3.415.175 1.968.66 4.246 1.889 6.32 3.947 7.21c.826.25 1.626.581 2.388.99.487.352.88.822 1.145 1.368-.259-1.294-.731-2.615-1.792-3.348zM16.74 22.288c-2.984.772-6.879 1.175-8.516-1.407.051.622.227 1.227.518 1.777 1.397 2.542 4.814 2.456 7.72 1.829l.277-2.2zM28.826 24.097c.415 2.681-1.294 5.356-3.558 6.762-2.265 1.407-5.028 1.797-7.694 1.982-.424.056-.854.006-1.255-.146-.249.57-.143 1.237.27 1.698.412.461 1.053.63 1.632.429 2.666-.172 5.41-.548 7.694-1.981s3.992-4.101 3.552-6.79c-.124-.678-.34-1.336-.64-1.954zM31.7.192c.8 3.253.083 6.702-1.942 9.344-1.527 1.889-3.85 3.4-4.18 5.824-.11 1.115.116 2.237.647 3.216-.058-.41-.058-.825 0-1.234.33-2.424 2.653-3.963 4.18-5.825 2.51-3.097 2.86-7.66 1.294-11.325z" transform="translate(345 436)"/>
                    </g>
                    <g fill="#000" opacity=".1">
                        <path d="M6.443 13.686c2.218-.914 4.99-.947 6.64-2.594 1.16-1.155 1.44-2.822 2.243-4.203 1.304-2.31 4.011-3.704 6.737-4.437 9.13-2.465 29.948 2.802 35.374 10.437 1.59 2.31 2.457 5.036 2.491 7.835.21-3.231-.665-6.44-2.485-9.126C52.017 3.963 31.22-1.304 22.07 1.16c-2.727.733-5.413 2.128-6.737 4.437-.803 1.381-1.083 3.048-2.244 4.203-1.65 1.641-4.422 1.674-6.639 2.595-1.69.694-2.941 2.743-2.485 4.119.368-1.26 1.275-2.294 2.478-2.829zM.704 23.111c.274-2.075 1.957-4.151 4.233-4.268-.484-.2-.85-.608-.998-1.109-1.764.652-3.02 2.223-3.26 4.08-.063.528-.063 1.061 0 1.59.025-.098.025-.195.025-.293z" transform="translate(293 706)"/>
                    </g>
                    <path fill="#FFF" d="M372 494H432V571H372z"/>
                    <path fill="#000" d="M372 494H432V571H372z" opacity=".1"/>
                    <path fill="#FFF" d="M401.6 502.165L460.971 502.169 460.976 579.563 401.605 579.559z" transform="rotate(-9.76 431.288 540.864)"/>
                    <path fill="#1B51E5" d="M411.091 558.439L425.04 558.44 425.041 576.623 411.092 576.622z" transform="rotate(-9.76 418.066 567.531)"/>
                    <path fill="#1B51E5" d="M430.114 555.165L444.063 555.166 444.064 573.349 430.115 573.348z" transform="rotate(-9.76 437.089 564.257)"/>
                    <path fill="#1B51E5" d="M408.846 531.866L457.761 531.869 457.763 550.133 408.847 550.13z" transform="rotate(-9.744 433.304 541)"/>
                    <path fill="#1B51E5" d="M403.627 510.484L452.542 510.487 452.543 514.562 403.627 514.559z" transform="rotate(-9.744 428.085 512.523)"/>
                    <path fill="#1B51E5" d="M405.208 517.872L454.123 517.875 454.124 521.95 405.208 521.946z" transform="rotate(-9.744 429.666 519.91)"/>
                    <path fill="#AE6E79" d="M405.052 472s-26.687 27.86-13.29 34.938c13.399 7.078 22.12-23.548 22.12-23.548l2.118-6.966L405.052 472z"/>
                    <path fill="#000" d="M403.354 469.992L400 477.539s16.542 2.366 20 7.461l-2.05-13.317-2.433-5.683-12.163 3.992z" opacity=".1"/>
                    <path fill="#4C4981" d="M403.354 468.992L400 476.539s16.542 2.366 20 7.461l-2.05-13.317-2.433-5.683-12.163 3.992z"/>
                    <path fill="#464A5F" d="M504.327 606.14L504 606.52 504.452 606.86 504.94 606.79 505 606.22z"/>
                    <path fill="#000" d="M504.327 606.14L504 606.52 504.452 606.86 504.94 606.79 505 606.22z" opacity=".1"/>
                    <path fill="#9C9CA1" d="M505 606.66L504.44 607 504 606.491 504.27 606.075 504.52 606z"/>
                    <path fill="#000" d="M505 606.66L504.44 607 504 606.491 504.27 606.075 504.52 606z" opacity=".1"/>
                    <path fill="#9C9CA1" d="M568 560.99l-26.693-38.61c-.478-.697-1.212-1.174-2.041-1.327-.83-.153-1.686.03-2.38.51l-59.502 40.903c-1.45.996-1.82 2.98-.828 4.433L503.177 606 568 560.99z"/>
                    <path fill="#000" d="M568 560.99l-26.693-38.61c-.478-.697-1.212-1.174-2.041-1.327-.83-.153-1.686.03-2.38.51l-59.502 40.903c-1.45.996-1.82 2.98-.828 4.433L503.177 606 568 560.99z" opacity=".1"/>
                    <path fill="#9C9CA1" d="M569 560.969l-26.693-38.59c-.478-.696-1.214-1.173-2.044-1.326-.83-.153-1.688.03-2.383.51l-59.494 40.907c-1.448.996-1.821 2.976-.835 4.431L504.172 606 569 560.969z"/>
                    <path fill="#464A5F" d="M591.487 568.19L569.451 561 505 606.39l22.387 7.441c1.016.336 2.128.165 3-.46l61.282-43.962c.235-.134.364-.402.324-.673-.04-.27-.242-.488-.506-.545z"/>
                    <path fill="#000" d="M591.487 568.19L569.451 561 505 606.39l22.387 7.441c1.016.336 2.128.165 3-.46l61.282-43.962c.235-.134.364-.402.324-.673-.04-.27-.242-.488-.506-.545z" opacity=".1"/>
                    <path fill="#464A5F" d="M591.503 568.199L569.463 561 505 606.398l22.39 7.429c1.016.341 2.13.172 3.002-.455l61.293-43.968c.226-.138.347-.4.308-.665-.04-.264-.234-.478-.49-.54z"/>
                    <g fill="#000" opacity=".1">
                        <path d="M64.448 16.688l-1.632-2.342c-.204-.282-.593-.354-.884-.163l-2.425 1.62c-.282.2-.36.586-.175.878l1.502 2.31c.195.287.581.37.877.189l2.555-1.607c.288-.198.369-.59.181-.885zM60.093 19.707l-1.639-2.336c-.203-.282-.593-.354-.883-.163l-2.418 1.633c-.285.198-.365.584-.182.879l1.501 2.31c.193.289.58.375.877.195l2.562-1.607c.146-.096.247-.246.282-.418.034-.17-.002-.349-.1-.493zM55.517 22.875l-1.639-2.335c-.203-.283-.593-.354-.883-.163L50.57 22.01c-.286.2-.364.59-.175.885l1.501 2.31c.195.287.582.37.877.188l2.555-1.607c.147-.094.25-.244.286-.416.035-.171 0-.35-.097-.495zM50.882 26.09l-1.638-2.343c-.203-.278-.588-.35-.877-.163l-2.425 1.64c-.283.2-.36.585-.175.878l1.501 2.31c.193.286.575.371.871.195l2.561-1.614c.144-.095.245-.244.279-.414.034-.17 0-.346-.097-.49zM46.254 29.297l-1.638-2.336c-.204-.282-.593-.354-.884-.163l-2.418 1.633c-.285.198-.365.584-.182.879l1.502 2.31c.193.289.58.375.877.194l2.561-1.613c.144-.096.245-.245.279-.414.034-.17 0-.346-.097-.49zM41.828 32.797l-2.035-2.902c-.044-.065-.111-.11-.188-.125-.077-.014-.157.002-.221.047l-2.977 2.01c-.067.043-.113.11-.129.188-.016.077 0 .157.044.222l1.865 2.87c.09.137.272.177.41.09l3.146-1.951c.076-.044.13-.119.146-.205.016-.087-.006-.176-.062-.244zM37.2 36.004l-2.048-2.901c-.045-.066-.114-.111-.192-.126-.078-.014-.159.003-.224.048l-2.977 2.01c-.133.093-.167.275-.078.41l1.866 2.869c.04.069.107.118.184.135.078.017.16.001.225-.044l3.14-1.952c.08-.038.14-.111.16-.199.02-.088 0-.18-.056-.25zM33.098 38.847l-2.034-2.875c-.095-.13-.277-.162-.41-.072l-2.977 2.004c-.136.093-.173.278-.084.416l1.865 2.87c.09.134.27.174.41.09l3.146-1.951c.087-.042.15-.123.166-.219.017-.096-.014-.194-.082-.263zM28.509 42.022l-2.035-2.901c-.094-.13-.276-.162-.409-.072l-2.977 2.004c-.067.044-.113.112-.129.19-.016.079 0 .16.044.226l1.866 2.87c.09.134.27.174.41.09l3.145-1.951c.077-.045.13-.121.147-.209.016-.087-.006-.177-.062-.247zM24.063 45.08l-2.034-2.901c-.044-.066-.112-.11-.189-.125s-.157.002-.221.046l-2.977 2.01c-.066.043-.112.11-.128.188-.016.077 0 .157.044.223l1.865 2.869c.089.137.271.178.41.091l3.146-1.952c.076-.043.13-.118.146-.205.016-.086-.007-.175-.062-.244zM19.617 48.19l-2.015-2.908c-.095-.13-.276-.162-.41-.072l-2.976 2.004c-.067.044-.114.113-.13.19-.015.079 0 .16.045.227l1.865 2.869c.091.134.271.174.41.09l3.146-1.951c.073-.047.123-.123.135-.21.013-.086-.013-.173-.07-.239zM15.171 51.267l-2.034-2.901c-.044-.065-.112-.11-.189-.125s-.157.002-.221.047L9.75 50.285c-.066.043-.112.11-.128.187s0 .158.043.223l1.866 2.87c.089.136.271.177.41.09l3.145-1.952c.073-.043.123-.116.14-.199.016-.083-.004-.169-.055-.237zM61.523 12.453l-1.639-2.343c-.203-.282-.593-.354-.883-.162l-2.399 1.64c-.285.197-.365.583-.182.878l1.502 2.31c.195.287.581.37.877.188l2.561-1.607c.294-.205.367-.61.163-.904zM55.12 3.194L53.482.84c-.203-.278-.588-.35-.877-.162L50.18 2.31c-.285.197-.365.583-.182.878l1.502 2.31c.193.29.58.375.877.195l2.561-1.607c.293-.198.373-.594.182-.892zM57.161 15.471l-1.638-2.335c-.203-.279-.588-.35-.878-.163l-2.424 1.633c-.283.2-.36.585-.175.878l1.495 2.31c.193.29.58.376.877.195l2.561-1.607c.146-.095.248-.246.282-.417.034-.171-.002-.35-.1-.494zM52.585 18.64l-1.638-2.336c-.204-.282-.593-.354-.884-.163l-2.418 1.614c-.289.198-.37.589-.182.885l1.502 2.31c.195.287.581.37.877.188l2.561-1.607c.293-.198.373-.594.182-.891zM47.95 21.854l-1.631-2.342c-.204-.283-.593-.354-.884-.163l-2.425 1.659c-.282.2-.36.585-.175.878l1.502 2.31c.195.287.581.37.877.189l2.555-1.607c.15-.096.254-.249.288-.423.034-.175-.004-.356-.107-.501zM50.862 6.363l-1.638-2.336c-.203-.278-.588-.35-.877-.162l-2.425 1.633c-.284.197-.364.583-.181.878l1.501 2.31c.193.29.58.375.878.195l2.56-1.607c.147-.096.248-.246.283-.417.034-.172-.002-.35-.1-.494zM46.286 9.538l-1.638-2.342c-.203-.283-.593-.354-.884-.163l-2.418 1.614c-.284.197-.364.583-.181.878l1.501 2.31c.195.287.582.37.878.188l2.56-1.607c.285-.197.365-.584.182-.878zM41.652 12.745l-1.638-2.335c-.201-.281-.587-.355-.878-.17l-2.424 1.66c-.283.199-.36.585-.176.878l1.502 2.31c.193.29.58.375.878.195l2.554-1.614c.15-.095.254-.248.289-.423.034-.174-.005-.355-.107-.5zM43.322 25.061l-1.638-2.335c-.2-.281-.586-.355-.877-.17l-2.405 1.64c-.283.2-.36.585-.175.878l1.475 2.31c.193.286.575.371.871.195l2.561-1.613c.145-.095.247-.244.282-.413.036-.17.002-.347-.093-.492zM38.694 28.269l-1.638-2.336c-.203-.282-.593-.354-.883-.163l-2.419 1.633c-.284.198-.364.584-.181.879l1.501 2.31c.193.289.58.375.878.195l2.56-1.607c.147-.096.248-.246.283-.418.034-.171-.002-.349-.1-.493zM34.268 31.769l-2.035-2.902c-.043-.065-.11-.11-.188-.125-.077-.014-.157.003-.221.047l-2.977 2.01c-.066.043-.112.11-.128.188-.016.077 0 .157.043.222l1.866 2.87c.041.067.108.115.186.132.077.017.157.002.224-.041l3.146-1.952c.076-.044.13-.119.146-.205.016-.087-.007-.176-.062-.244zM30.166 34.612l-2.034-2.908c-.095-.13-.276-.162-.41-.072l-2.97 2.004c-.136.093-.173.278-.084.417l1.865 2.869c.09.134.27.174.41.09l3.145-1.951c.08-.041.135-.117.15-.205.016-.088-.01-.178-.072-.244zM25.578 37.787l-2.035-2.902c-.095-.13-.276-.162-.41-.071l-2.976 2.004c-.067.042-.113.11-.129.187s0 .157.044.222l1.866 2.876c.09.134.27.174.409.091l3.146-1.952c.077-.044.13-.12.146-.208.017-.087-.006-.178-.061-.247zM21.131 40.87l-2.034-2.9c-.044-.066-.111-.111-.188-.126-.077-.014-.157.002-.221.047l-2.977 1.984c-.067.043-.113.11-.129.188-.016.077 0 .157.044.222l1.865 2.87c.09.137.272.177.41.09l3.146-1.951c.068-.044.116-.114.132-.194s-.001-.162-.047-.23zM49.536 14.235L47.898 11.9c-.203-.279-.588-.35-.877-.163l-2.425 1.64c-.282.199-.36.585-.175.878l1.502 2.31c.194.283.576.366.87.188l2.562-1.607c.146-.095.247-.246.282-.417.034-.171-.002-.35-.1-.494zM44.902 17.45l-1.638-2.343c-.204-.282-.593-.354-.884-.163l-2.418 1.64c-.285.197-.365.584-.182.878l1.502 2.31c.193.29.58.375.877.195l2.561-1.614c.144-.095.245-.244.279-.414.034-.17 0-.346-.097-.49zM40.28 20.657l-1.638-2.336c-.203-.282-.593-.354-.884-.163l-2.424 1.633c-.283.2-.36.586-.176.879l1.502 2.31c.193.289.58.375.878.194l2.554-1.613c.145-.094.247-.243.282-.413.036-.17.002-.347-.093-.491zM35.646 23.864l-1.638-2.336c-.203-.278-.588-.35-.878-.162l-2.424 1.633c-.283.2-.36.585-.175.878l1.501 2.336c.193.286.575.371.871.195l2.561-1.607c.154-.096.26-.25.295-.429.035-.178-.006-.362-.113-.508zM31.252 27.364l-2.034-2.901c-.044-.066-.112-.11-.189-.125s-.157.002-.221.047l-2.977 2.01c-.135.09-.172.273-.084.41l1.865 2.875c.043.067.11.113.187.129s.157 0 .223-.044l3.146-1.952c.076-.043.13-.118.146-.205.016-.086-.007-.175-.062-.244zM27.125 30.207L25.09 27.3c-.097-.131-.28-.163-.416-.071l-2.97 2.004c-.136.093-.174.277-.085.416l1.866 2.87c.088.136.27.177.409.09l3.146-1.952c.076-.043.13-.118.146-.204.016-.087-.006-.176-.061-.245zM22.535 33.37l-2.034-2.909c-.097-.131-.28-.163-.416-.071l-2.977 2.003c-.133.096-.17.277-.085.417l1.872 2.869c.09.137.272.178.41.091l3.14-1.952c.079-.04.135-.115.153-.202.018-.088-.005-.178-.063-.247zM18.09 36.466l-2.035-2.901c-.045-.066-.114-.111-.192-.126-.078-.014-.159.003-.224.048l-2.977 2.01c-.133.093-.167.275-.078.41l1.866 2.869c.04.069.107.118.184.135.078.017.16.001.225-.044l3.14-1.952c.079-.04.135-.115.153-.202.018-.088-.005-.178-.063-.247zM16.686 43.948l-2.035-2.901c-.095-.131-.276-.163-.41-.072l-2.976 2.004c-.067.042-.113.11-.129.187s0 .157.044.223l1.866 2.875c.09.135.27.174.409.091l3.146-1.951c.077-.045.13-.121.146-.209.017-.087-.006-.177-.061-.247zM12.24 47.032l-2.035-2.902c-.044-.065-.111-.11-.188-.124-.077-.015-.157.002-.221.046l-2.977 2.01c-.067.043-.113.11-.129.188-.016.077 0 .157.044.223L8.6 49.342c.088.137.27.177.409.09l3.146-1.951c.076-.043.13-.118.146-.205.016-.086-.006-.176-.062-.244zM19.22 28.594l-1.95-2.733c-.127-.176-.372-.22-.552-.097l-2.808 1.893c-.088.058-.15.15-.17.254-.021.103 0 .211.06.3l1.755 2.7c.054.09.144.153.246.177.103.023.211.003.3-.054l2.97-1.867c.099-.054.171-.145.2-.254.028-.109.01-.224-.05-.319zM14.774 31.678l-1.917-2.733c-.06-.087-.15-.147-.255-.167-.103-.02-.21.003-.297.063l-2.809 1.926c-.087.057-.149.147-.17.25-.02.103.001.21.06.296l1.755 2.707c.119.182.36.236.546.124l2.97-1.868c.102-.058.173-.157.196-.272.022-.115-.006-.234-.079-.326zM10.329 34.762l-1.918-2.74c-.128-.176-.372-.22-.552-.097L5.05 33.818c-.089.059-.15.15-.171.254-.02.104 0 .211.06.3l1.755 2.7c.055.09.144.153.247.177.103.023.21.004.299-.054l2.97-1.867c.094-.058.159-.15.181-.258.022-.107 0-.219-.063-.308zM5.941 37.924l-2.034-2.909c-.095-.13-.277-.162-.41-.071L.52 36.948c-.136.093-.173.277-.085.416l1.866 2.87c.09.133.27.173.41.09l3.145-1.951c.08-.04.138-.116.154-.204.017-.088-.009-.179-.069-.245zM58.552 7.898l-1.761-2.505c-.206-.28-.595-.348-.884-.156l-6.877 4.821c-.277.201-.35.582-.17.872l1.658 2.563c.096.144.246.243.415.276.17.033.345-.003.489-.1l6.98-4.886c.278-.208.344-.597.15-.885zM13.63 39.453L11.473 36.4c-.044-.066-.114-.11-.192-.124-.079-.014-.16.005-.223.053l-7.424 5.204c-.131.091-.166.27-.078.404l2.028 3.142c.044.069.114.117.194.132.08.016.162 0 .229-.047l7.546-5.29c.138-.095.173-.284.079-.422zM37.245 16.115l-1.989-2.914c-.093-.133-.274-.168-.41-.078L18.363 24.26c-.135.09-.173.273-.085.41l2.035 3.123c.043.068.113.116.193.132s.162-.001.229-.048l16.432-11.346c.066-.045.11-.114.125-.192s-.002-.159-.047-.225z" transform="translate(494 543)"/>
                    </g>
                    <path fill="#464A5F" d="M558.897 559.5l-1.537-2.242c-.19-.27-.556-.339-.829-.156l-2.268 1.57c-.268.189-.343.558-.171.84l1.409 2.211c.18.277.544.36.823.187l2.402-1.545c.136-.09.23-.234.262-.396.032-.163 0-.331-.09-.47zM553.894 562.495l-1.535-2.24c-.191-.266-.552-.335-.823-.155l-2.273 1.566c-.268.189-.343.56-.171.842l1.408 2.214c.18.278.543.36.822.188l2.402-1.541c.137-.092.232-.236.264-.4.032-.165-.002-.335-.094-.474zM549.894 565.496l-1.535-2.238c-.191-.27-.557-.339-.83-.155l-2.266 1.57c-.268.19-.343.56-.171.842l1.408 2.212c.183.275.545.355.822.18l2.402-1.539c.137-.091.232-.235.264-.4.032-.163-.002-.334-.094-.472zM544.881 569.483l-1.53-2.23c-.19-.264-.55-.332-.82-.154l-2.264 1.56c-.135.093-.227.237-.257.4-.03.163.006.331.099.467l1.402 2.199c.18.275.542.357.82.185l2.386-1.535c.143-.092.241-.24.273-.41.03-.169-.009-.344-.109-.482zM540.897 571.495l-1.538-2.24c-.19-.266-.552-.335-.824-.155l-2.276 1.566c-.266.19-.338.561-.165.842l1.404 2.214c.181.278.544.36.824.188l2.404-1.547c.136-.092.23-.235.262-.398.032-.162 0-.332-.09-.47zM536.94 575.767l-1.809-2.648c-.039-.06-.099-.1-.167-.114-.069-.014-.14.002-.197.042l-2.647 1.835c-.06.04-.1.1-.115.171-.014.07 0 .144.04.203l1.658 2.62c.08.124.241.162.365.082l2.797-1.781c.068-.04.116-.108.13-.187.015-.079-.005-.16-.054-.223zM530.943 578.765l-1.81-2.646c-.04-.06-.101-.101-.17-.114-.07-.014-.142.002-.2.043l-2.643 1.833c-.06.039-.1.1-.115.17-.014.071 0 .144.04.204l1.66 2.622c.037.06.097.103.166.117.068.015.14 0 .198-.04l2.8-1.78c.066-.04.112-.109.126-.187.015-.078-.004-.159-.052-.222zM527.952 581.781l-1.814-2.668c-.085-.12-.246-.149-.365-.066l-2.655 1.815c-.12.086-.154.255-.075.382l1.663 2.633c.081.123.242.16.366.083l2.805-1.79c.061-.04.104-.105.118-.178.014-.073-.001-.15-.043-.21zM522.927 584.744l-1.804-2.632c-.084-.119-.245-.148-.363-.065l-2.64 1.83c-.06.04-.1.103-.115.174-.014.071 0 .146.04.206l1.654 2.62c.08.123.24.16.363.084l2.79-1.783c.076-.038.13-.112.144-.197.015-.086-.011-.174-.07-.237zM517.94 587.766l-1.809-2.647c-.039-.06-.099-.1-.167-.114-.069-.014-.14.002-.197.042l-2.647 1.835c-.06.038-.1.1-.115.17-.014.07 0 .144.04.203l1.658 2.618c.037.062.097.105.165.12.069.016.14.003.2-.037l2.797-1.78c.068-.04.116-.109.13-.187.015-.08-.005-.16-.054-.223zM512.94 590.768l-1.81-2.656c-.084-.119-.245-.148-.364-.065l-2.648 1.83c-.12.085-.154.253-.075.38l1.66 2.62c.08.123.24.16.364.084l2.798-1.783c.068-.04.116-.108.13-.187.015-.079-.005-.16-.055-.223zM508.94 594.766l-1.809-2.647c-.039-.06-.099-.1-.167-.114-.069-.014-.14.002-.197.042l-2.647 1.835c-.06.038-.1.1-.115.17-.014.07 0 .144.04.203l1.658 2.618c.037.062.097.105.165.12.069.016.14.003.2-.037l2.797-1.78c.068-.04.116-.109.13-.187.015-.08-.005-.16-.054-.223zM555.897 554.498l-1.538-2.242c-.19-.267-.552-.335-.824-.156l-2.276 1.57c-.266.19-.338.56-.165.841l1.404 2.212c.181.277.544.36.824.187l2.404-1.545c.136-.092.23-.235.262-.397.032-.163 0-.332-.09-.47zM549.894 545.497l-1.537-2.241c-.19-.267-.552-.336-.823-.156l-2.275 1.567c-.266.19-.338.561-.165.842l1.409 2.216c.18.274.54.356.817.187l2.403-1.541c.138-.092.233-.236.265-.4.032-.165-.002-.336-.094-.474zM551.9 558.51l-1.54-2.254c-.19-.267-.552-.336-.823-.156l-2.278 1.567c-.266.19-.338.561-.165.842l1.41 2.216c.182.274.54.356.819.187l2.406-1.541c.278-.19.355-.575.17-.862zM546.886 561.494l-1.517-2.238c-.191-.267-.553-.335-.826-.156l-2.281 1.565c-.27.192-.343.566-.165.848l1.407 2.214c.183.275.547.355.825.18l2.41-1.54c.134-.095.225-.24.252-.405.028-.164-.01-.332-.105-.468zM542.897 564.5l-1.537-2.242c-.19-.27-.556-.339-.829-.156l-2.268 1.57c-.268.189-.343.558-.171.84l1.409 2.211c.18.277.544.36.823.187l2.402-1.545c.136-.09.23-.234.262-.396.032-.163 0-.331-.09-.47zM544.9 548.51l-1.54-2.254c-.19-.267-.552-.336-.823-.156l-2.278 1.567c-.266.19-.338.561-.165.842l1.41 2.216c.182.274.54.356.819.187l2.406-1.541c.278-.19.355-.575.17-.862zM540.897 552.498l-1.537-2.242c-.19-.267-.551-.335-.823-.156l-2.274 1.57c-.268.189-.343.559-.171.841l1.409 2.212c.18.277.544.36.823.187l2.402-1.545c.136-.092.23-.235.262-.397.032-.163 0-.332-.09-.47zM536.896 555.494l-1.536-2.236c-.191-.27-.557-.339-.83-.156l-2.267 1.563c-.268.19-.343.56-.171.841l1.408 2.217c.181.277.544.36.823.187l2.396-1.545c.138-.09.235-.233.268-.397.034-.165 0-.335-.09-.474zM536.902 567.503l-1.54-2.246c-.19-.268-.552-.337-.824-.157l-2.28 1.558c-.265.192-.337.563-.164.845l1.411 2.221c.182.275.54.358.82.188l2.406-1.552c.275-.19.351-.571.171-.857zM532.88 570.48l-1.531-2.226c-.19-.265-.55-.333-.82-.155l-2.267 1.587c-.267.188-.341.557-.17.837l1.403 2.201c.18.276.542.358.82.186l2.395-1.531c.145-.091.247-.24.279-.411.032-.171-.007-.348-.11-.488zM528.935 574.766l-1.816-2.647c-.039-.06-.1-.1-.168-.114-.069-.014-.14.002-.197.042l-2.634 1.835c-.06.038-.1.1-.115.17-.014.07 0 .144.04.203l1.665 2.618c.037.062.096.105.165.12.069.016.141.003.2-.037l2.808-1.78c.063-.045.105-.115.115-.193.01-.078-.013-.157-.063-.217zM523.94 577.767l-1.809-2.654c-.086-.12-.25-.149-.37-.065l-2.645 1.829c-.118.086-.151.252-.075.38l1.663 2.618c.08.125.241.163.364.083l2.79-1.781c.07-.037.121-.105.137-.185.016-.08-.005-.162-.056-.225zM519.934 579.768l-1.808-2.656c-.084-.119-.245-.148-.363-.065l-2.645 1.83c-.12.085-.154.253-.075.38l1.657 2.62c.08.123.24.16.364.084l2.795-1.783c.071-.036.122-.105.137-.186.014-.08-.008-.163-.062-.224zM514.931 583.767l-1.795-2.648c-.04-.06-.1-.1-.168-.114-.069-.014-.14.002-.197.042l-2.653 1.835c-.12.083-.154.25-.076.374l1.663 2.62c.079.124.241.162.365.082l2.803-1.781c.068-.041.113-.111.124-.19.012-.08-.013-.16-.066-.22zM543.897 556.502l-1.532-2.244c-.191-.27-.557-.339-.83-.155l-2.276 1.57c-.266.191-.338.561-.165.842l1.41 2.212c.183.275.546.355.824.18l2.398-1.539c.136-.091.23-.234.262-.396.032-.163 0-.332-.09-.47zM538.897 560.499l-1.538-2.239c-.189-.269-.55-.34-.824-.162l-2.276 1.571c-.266.192-.338.562-.165.842l1.41 2.214c.18.274.54.356.818.187l2.404-1.546c.136-.092.23-.235.262-.397.032-.163 0-.332-.09-.47zM534.884 563.494l-1.56-2.235c-.192-.271-.56-.34-.833-.156l-2.227 1.56c-.269.19-.344.56-.172.843l1.414 2.216c.182.278.546.36.826.188l2.411-1.542c.133-.097.222-.243.249-.408.026-.164-.013-.332-.108-.466zM529.894 566.497l-1.537-2.241c-.19-.267-.552-.336-.823-.156l-2.275 1.567c-.266.19-.338.561-.165.842l1.409 2.216c.18.274.54.356.817.187l2.403-1.541c.138-.092.233-.236.265-.4.032-.165-.002-.336-.094-.474zM525.942 570.765l-1.808-2.646c-.04-.06-.101-.101-.17-.114-.07-.014-.142.002-.2.043l-2.647 1.833c-.12.083-.153.249-.075.374l1.659 2.622c.038.06.1.103.169.118.07.014.141 0 .2-.041l2.791-1.78c.07-.038.118-.106.134-.185.015-.079-.004-.161-.053-.224zM520.935 572.768l-1.815-2.65c-.038-.059-.099-.1-.168-.113-.068-.014-.14.002-.197.042l-2.637 1.83c-.12.085-.154.254-.075.38l1.663 2.62c.081.123.241.16.365.084l2.806-1.783c.065-.042.11-.112.12-.191.011-.079-.012-.159-.062-.219zM516.94 576.767l-1.81-2.654c-.086-.12-.249-.149-.37-.065l-2.642 1.829c-.12.085-.154.253-.075.38l1.66 2.618c.078.125.24.163.364.083l2.798-1.781c.068-.04.116-.108.13-.187.015-.079-.005-.16-.055-.223zM512.943 578.765l-1.81-2.646c-.04-.06-.101-.101-.17-.114-.07-.014-.142.002-.2.043l-2.643 1.833c-.06.039-.1.1-.115.17-.014.071 0 .144.04.204l1.66 2.622c.037.06.097.103.166.117.068.015.14 0 .198-.04l2.8-1.78c.066-.04.112-.109.126-.187.015-.078-.004-.159-.052-.222zM510.94 586.768l-1.808-2.655c-.087-.12-.25-.149-.37-.065l-2.644 1.83c-.12.085-.154.253-.075.38l1.657 2.62c.08.122.24.158.364.083l2.794-1.783c.07-.037.121-.105.137-.185.016-.08-.005-.162-.056-.225zM505.94 589.766l-1.808-2.647c-.04-.06-.101-.101-.17-.114-.07-.014-.142.002-.2.043l-2.645 1.834c-.12.083-.153.249-.075.374l1.658 2.617c.037.061.098.105.167.12.07.016.143.003.202-.037l2.79-1.78c.07-.038.12-.106.136-.185.016-.08-.005-.163-.056-.225zM512.94 570.69l-1.73-2.535c-.116-.164-.337-.204-.5-.09l-2.551 1.751c-.164.115-.208.342-.1.512l1.584 2.505c.11.17.331.218.499.108l2.675-1.728c.087-.05.15-.135.173-.234.023-.1.005-.204-.05-.29zM508.935 574.689l-1.735-2.528c-.054-.081-.137-.137-.23-.155-.094-.018-.191.003-.27.059l-2.541 1.757c-.163.112-.208.337-.1.505l1.588 2.504c.11.169.33.22.5.114l2.688-1.727c.083-.056.14-.144.158-.243.02-.1-.002-.203-.058-.286zM504.942 577.69l-1.757-2.536c-.112-.163-.331-.203-.492-.09l-2.535 1.752c-.163.115-.207.342-.1.512l1.582 2.505c.109.17.33.218.497.108l2.676-1.728c.088-.049.152-.133.176-.233.025-.1.007-.205-.047-.29zM499.94 580.767l-1.809-2.654c-.086-.12-.25-.149-.37-.065l-2.647 1.829c-.119.087-.15.254-.07.38l1.66 2.618c.078.125.24.163.364.083l2.797-1.781c.068-.04.116-.108.13-.187.015-.079-.005-.16-.054-.223zM553.895 550.888l-1.752-2.612c-.207-.291-.6-.363-.892-.162l-6.98 5.014c-.28.209-.354.605-.17.907l1.679 2.666c.097.15.248.252.419.287.17.034.348-.003.493-.104l7.039-5.082c.28-.212.353-.613.164-.914zM507.946 582.2l-2.12-3.07c-.044-.067-.112-.112-.19-.126-.077-.013-.156.006-.219.054l-7.292 5.236c-.13.093-.164.276-.076.412l1.998 3.155c.043.07.112.117.19.133s.16-.001.225-.048l7.414-5.321c.132-.099.164-.288.07-.426zM531.936 559.06l-1.946-2.926c-.093-.137-.276-.175-.415-.086l-16.44 11.243c-.067.043-.113.11-.129.189-.016.078 0 .159.044.225l2.023 3.155c.044.07.114.118.193.134.08.016.162-.001.229-.048l16.396-11.466c.125-.104.146-.291.045-.42z"/>
                    <path fill="#000" d="M532.706 548.62l-8.968-12.904c-.516-.746-1.544-.94-2.302-.435l-24.702 16.422c-.367.246-.62.627-.704 1.058-.084.431.01.878.259 1.24l9.14 13.274c.249.364.634.615 1.07.696.436.082.887-.012 1.252-.262l24.53-16.803c.362-.247.612-.626.692-1.055.08-.43-.017-.872-.267-1.23z" opacity=".1"/>
                    <path fill="#939498" d="M532.701 548.619l-8.973-12.905c-.519-.743-1.544-.937-2.303-.435l-24.683 16.436c-.37.244-.626.624-.711 1.056-.085.432.008.88.258 1.243l9.12 13.26c.249.365.634.616 1.07.697.436.082.888-.012 1.253-.262l24.557-16.804c.361-.249.608-.63.685-1.059.078-.428-.02-.87-.273-1.227z"/>
                    <path fill="#1B51E5" d="M586.51 569.253L567.85 563 508 604.768l18.523 6.064c1.013.332 2.122.167 2.995-.446l57.161-39.933c.228-.135.352-.394.314-.657-.037-.262-.228-.477-.484-.543z"/>
                </g>
            </g>
        </g>
    </g>
</svg>
