<svg xmlns="http://www.w3.org/2000/svg" width="167" height="116" viewBox="0 0 167 116">
    <g fill="none" fill-rule="evenodd">
        <g>
            <g>
                <g transform="translate(-99 -71) translate(99 71) translate(26)">
                    <ellipse cx="102.007" cy="7.524" fill="#F1F1F1" fill-rule="nonzero" rx="2.197" ry="2.195"/>
                    <ellipse cx="89.139" cy="91.859" fill="#F1F1F1" fill-rule="nonzero" rx="2.197" ry="2.195"/>
                    <ellipse cx="35.153" cy="28.216" fill="#F1F1F1" fill-rule="nonzero" rx="2.197" ry="2.195"/>
                    <path fill="#5E81F4" fill-rule="nonzero" d="M27.015 88.41l5.941-1.826c-.329-2.425-1.08-4.776-2.219-6.952l-5.941 1.827c1.394 2.065 2.163 4.475 2.219 6.952z"/>
                    <ellipse cx="12.869" cy="39.346" fill="#2F2E41" fill-rule="nonzero" rx="5.336" ry="5.486"/>
                    <path fill="#9F616A" fill-rule="nonzero" d="M6.97 107.535L5.964 112.238 8.409 112.238 9.416 106.908zM19.146 107.849L19.146 111.945 21.657 112.238 21.657 107.849zM6.277 60.653s.286 6.233.571 6.668c.285.435 2.853 6.668 2.853 6.668l1.284-4.059s-1.997-3.334-1.712-5.218c.286-1.885.106-4.204.106-4.204l-3.102.145z"/>
                    <ellipse cx="14.909" cy="41.227" fill="#9F616A" fill-rule="nonzero" rx="4.237" ry="4.232"/>
                    <path fill="#9F616A" fill-rule="nonzero" d="M11.34 41.697s.147 5.892-.878 6.776c-1.026.884 5.86.147 5.86.147s-1.466-4.124-.294-5.008c1.172-.884-4.687-1.915-4.687-1.915z"/>
                    <path fill="#2F2E41" fill-rule="nonzero" d="M16.83 48.513s-.894-1.624-2.084-1.476c-1.19.147-5.06.442-5.208.738-.149.295-.595 1.328-.893 1.624-.298.295-2.53.738-2.679 2.51-.148 1.771 5.357 12.55 5.357 12.55s-.744 2.51-.595 3.1c.15.59-.744 2.362-.595 3.1.149.738-2.232 5.168-1.042 10.926v9.3S5.074 106.98 6.264 108.16c1.19 1.181 5.208.443 5.952 0 .744-.443 3.87-22.737 3.87-22.737l1.487-7.53.15 16.536s-.298 13.879.743 14.322c1.042.442 5.06.59 5.357-.296.232-.69 1.37-19.073 1.859-27.131.17-2.782-.051-5.573-.655-8.294-.62-2.787-1.519-6.062-2.543-7.39-1.935-2.51-3.125-10.483-3.125-10.483l2.53-4.577s-1.488-1.477-2.381-1.477c-.893 0-2.679-.59-2.679-.59z"/>
                    <path fill="#2F2E41" fill-rule="nonzero" d="M7.06 50.476l-.807.53s-.57 9.523-.11 10.114c.458.591 3.648.303 3.888-.218.24-.521-2.971-10.426-2.971-10.426z"/>
                    <path fill="#9F616A" fill-rule="nonzero" d="M19.146 59.243s.147 6.189 1.03 7.957c.884 1.768 4.122 9.136 4.122 9.136s-.188 8.108 1.452 6.117c1.64-1.992.61-6.707.61-6.707l-2.798-10.904s-1.472-4.862-1.325-6.335c.148-1.474-3.091.736-3.091.736z"/>
                    <path fill="#2F2E41" fill-rule="nonzero" d="M21.789 109.43s.146-.113.586.31c.44.421 1.613.984 1.466 2.53-.146 1.548-1.026 1.829-1.026 1.829v-.422h-.44v.703s-.733 2.25-4.105.844c0 0-.147-1.125 0-1.828.146-.703.146-4.079.586-3.938.44.14 1.613.281 1.906.844.293.562 1.173.365 1.027-.872zM6.46 109.743s-.147-.112-.587.31c-.44.422-1.613.984-1.466 2.531.146 1.547 1.026 1.829 1.026 1.829v-.422h.44v.703s.733 2.25 4.106.844c0 0 .146-1.125 0-1.829-.147-.703-.147-4.078-.587-3.937-.44.14-1.613.28-1.906.843-.293.563-1.173.366-1.026-.872zM19.606 50.162l2.06.442s0 3.242.59 4.569c.588 1.326 1.619 4.42 1.177 4.568-.441.148-4.563 2.21-4.857 1.032-.294-1.18-1.03-10.61 1.03-10.61z"/>
                    <ellipse cx="6.905" cy="32.135" fill="#2F2E41" fill-rule="nonzero" rx="5.336" ry="5.486"/>
                    <path fill="#2F2E41" fill-rule="nonzero" d="M2.4 36.683c1.407 1.018 3.219 1.291 4.862.731 1.643-.56 2.914-1.882 3.41-3.549-.252 2.007-1.61 3.701-3.51 4.383-1.9.682-4.023.235-5.488-1.156-1.466-1.39-2.027-3.489-1.451-5.427-.245 1.945.59 3.87 2.177 5.018z"/>
                    <ellipse cx="11.613" cy="40.443" fill="#2F2E41" fill-rule="nonzero" rx="4.08" ry="4.076"/>
                    <ellipse cx="14.909" cy="38.876" fill="#2F2E41" fill-rule="nonzero" rx="3.609" ry="2.822"/>
                    <ellipse cx="15.693" cy="41.697" fill="#A0616A" fill-rule="nonzero" rx="1" ry="1.254"/>
                    <path fill="#F1F1F1" fill-rule="nonzero" d="M40.77 13.22L119.715 13.247 119.736 76.734 40.791 76.707z" transform="rotate(16.714 80.253 44.977)"/>
                    <path stroke="#3F3D56" stroke-width="2" d="M81.92 20.692L99.81 27.903"/>
                    <path fill="#3F3D56" fill-rule="nonzero" d="M82.275 22.573L82.514 22.433 81.964 20.956 83.175 20.374 83.081 20.065 81.606 20.774zM98.649 29.157L98.555 28.848 99.766 28.266 99.216 26.789 99.455 26.649 100.124 28.448z"/>
                    <ellipse cx="91.022" cy="24.454" fill="#3F3D56" fill-rule="nonzero" rx="1.569" ry="1.568"/>
                    <path stroke="#3F3D56" stroke-width="2" d="M80.664 71.481L96.985 61.449"/>
                    <path fill="#3F3D56" fill-rule="nonzero" d="M82.182 71.795L82.234 71.531 80.988 71.264 81.333 69.986 81.085 69.914 80.664 71.47zM96.879 62.389L96.63 62.316 96.976 61.038 95.73 60.772 95.782 60.508 97.299 60.833z"/>
                    <ellipse cx="88.825" cy="66.151" fill="#3F3D56" fill-rule="nonzero" rx="1.569" ry="1.568"/>
                    <path stroke="#3F3D56" stroke-width="2" d="M59.632 39.189L59.638 58.314"/>
                    <path fill="#3F3D56" fill-rule="nonzero" d="M58.38 40.233L58.604 40.443 59.635 39.329 60.666 40.443 60.891 40.232 59.634 38.876zM58.38 57.584L58.604 57.374 59.635 58.488 60.666 57.373 60.891 57.583 59.635 58.941z"/>
                    <ellipse cx="59.635" cy="48.908" fill="#3F3D56" fill-rule="nonzero" rx="1.569" ry="1.568"/>
                    <path fill="#3F3D56" fill-rule="nonzero" d="M45.825 0H72.818V33.232H45.825z"/>
                    <path fill="#FF6584" fill-rule="nonzero" d="M57.438 12.54h-5.972c-.407-2.385-.407-4.824 0-7.21h5.972c-.673 2.355-.673 4.855 0 7.21z"/>
                    <path fill="#5E81F4" fill-rule="nonzero" d="M61.204 15.99h5.972c.408-2.387.408-4.826 0-7.212h-5.972c.673 2.356.673 4.856 0 7.211zM55.24 27.903h5.973c.407-2.386.407-4.825 0-7.211H55.24c.673 2.355.673 4.855 0 7.21z"/>
                    <path fill="#3F3D56" fill-rule="nonzero" d="M102.007 31.978H129V65.21000000000001H102.007z"/>
                    <path fill="#5E81F4" fill-rule="nonzero" d="M105.774 38.876H124.92V39.876H105.774zM105.774 42.011H124.92V43.011H105.774zM105.774 45.146H124.92V46.146H105.774zM105.774 47.968H124.92V48.968H105.774zM105.774 51.103H124.92V52.103H105.774zM110.482 54.551H120.526V58.313H110.482z"/>
                    <path fill="#3F3D56" fill-rule="nonzero" d="M48.336 66.151H75.329V99.383H48.336z"/>
                    <path fill="#5E81F4" fill-rule="nonzero" d="M52.416 84.962H71.562V85.962H52.416zM52.416 87.784H71.562V88.784H52.416zM52.416 90.919H71.562V91.919H52.416zM52.416 94.054H71.562V95.054H52.416z"/>
                    <path fill="#5E81F4" fill-rule="nonzero" d="M58.066 78.065h-5.972c-.408-2.386-.408-4.825 0-7.21h5.972c-.673 2.354-.673 4.855 0 7.21zM60.891 71.168H72.19V72.168H60.891zM60.891 73.989H72.19V74.989H60.891zM60.891 76.811H72.19V77.811H60.891zM60.891 79.319H72.19V80.319H60.891z" opacity=".3"/>
                </g>
                <path fill="#5E81F4" fill-rule="nonzero" d="M162.528 105.104c-3.697 3.046-8.958 4.306-14.045 5.102l-.856.13c-5.314.787-10.687 1.206-16.078 1.461-2.884.139-5.769.237-8.653.324l-2.26.067c-2.936.086-5.877.17-8.823.254-2.884.082-5.769.158-8.654.23-3.694.089-7.388.163-11.082.223-2.885.045-5.77.076-8.654.093-3.695.021-7.39.014-11.082-.021-2.887-.03-5.772-.08-8.654-.15-3.696-.095-7.39-.233-11.083-.415-2.506-.122-5.01-.268-7.513-.44l-1.14-.08c-10.744-.768-21.681-2.148-31.083-6.508l-.254-.12c-.126-.058-.252-.117-.378-.179-1.726-.82-3.38-1.782-4.943-2.878-2.78-1.969-5.075-4.372-6.288-7.223-1.901-4.472-.896-9.5 1.275-13.872 2.17-4.372 5.43-8.32 8.25-12.437.826-1.206 1.609-2.458 2.338-3.74 4.554-8.048 6.813-17.36 2.039-25.114-.63-.988-1.311-1.945-2.04-2.865-1.164-1.507-2.348-3.015-3.148-4.684-1.866-3.884-1.465-8.252-.785-12.401.91-5.517 2.58-11.46 7.8-14.906 5.416-3.58 13.102-3.398 19.823-2.11 10.45 1.988 20.095 6.15 29.83 9.905 9.737 3.754 19.936 7.188 30.64 7.557 2.3.078 4.602-.005 6.89-.249 3.05-.311 6.058-.94 8.975-1.877 4.213-1.378 8.047-3.451 10.889-6.332 6.095-6.16 17.55-6.626 25.809-2.906 7.88 3.55 12.977 11.06 12.6 18.563-.427 8.352-6.725 15.218-12.495 22.26-.7.854-1.391 1.71-2.064 2.573-.375.482-.744.964-1.105 1.447-.633.854-1.245 1.712-1.822 2.58-2.948 4.453-5.032 9.8-3.003 14.607 1.139 2.692 3.312 4.745 5.93 6.538 5.868 4.015 13.968 6.717 17.611 12.338 3.14 4.844 1.977 11.383-2.714 15.255z" opacity=".1" transform="translate(-99 -71) translate(99 71)"/>
            </g>
        </g>
    </g>
</svg>
