<svg xmlns="http://www.w3.org/2000/svg" xmlns:xlink="http://www.w3.org/1999/xlink" width="16" height="16" viewBox="0 0 16 16">
    <defs>
        <path id="ge8kmov6fa" d="M9.067 0v1.067c3.234 0 5.866 2.632 5.866 5.866H16C16 3.11 12.89 0 9.067 0zm-5.52 1.603c-.28 0-.56.091-.788.275l-.026.021-1.677 1.73.036-.033c-.555.478-.708 1.233-.47 1.868.45 1.296 1.595 3.802 3.855 6.059 2.265 2.268 4.797 3.364 6.05 3.853l.013.004.012.004c.648.217 1.347.063 1.849-.366l.016-.014 1.666-1.667c.443-.442.443-1.218 0-1.66L11.898 9.49c-.444-.444-1.219-.444-1.663 0l-1.058 1.058c-.379-.18-1.311-.65-2.197-1.495-.874-.834-1.32-1.797-1.482-2.17l1.067-1.066c.468-.468.494-1.272-.045-1.701l.049.044L4.359 1.9l-.025-.02c-.228-.185-.507-.276-.787-.276zm5.52.53V3.2c2.058 0 3.733 1.675 3.733 3.733h1.067c0-2.646-2.153-4.8-4.8-4.8zm-5.52.534c.039 0 .076.014.113.042L5.83 4.93l.025.021c-.006-.005.02.046-.045.112L4.233 6.64l.122.321s.602 1.637 1.889 2.864c1.265 1.207 2.825 1.866 2.825 1.866l.332.141 1.589-1.588c.09-.09.064-.09.154 0l2.185 2.187c.091.091.091.061 0 .152l-1.625 1.625c-.247.21-.503.266-.81.164-1.207-.472-3.566-1.504-5.663-3.603-2.11-2.109-3.204-4.504-3.606-5.665l-.002-.006-.003-.007c-.081-.214-.022-.524.167-.687l.018-.015 1.63-1.68c.036-.028.075-.042.113-.042zm5.52 1.6v1.066c.882 0 1.6.718 1.6 1.6h1.066c0-1.47-1.196-2.666-2.666-2.666z"/>
    </defs>
    <g fill="none" fill-rule="evenodd">
        <g>
            <g>
                <g transform="translate(-912 -889) translate(530 869) translate(382 20)">
                    <mask id="1naxahwhmb" fill="#fff">
                        <use xlink:href="#ge8kmov6fa"/>
                    </mask>
                    <use fill="#000" fill-rule="nonzero" xlink:href="#ge8kmov6fa"/>
                    <g fill="#000" fill-opacity=".54" mask="url(#1naxahwhmb)">
                        <path d="M0 0H16V16H0z"/>
                    </g>
                </g>
            </g>
        </g>
    </g>
</svg>
