<svg xmlns="http://www.w3.org/2000/svg" width="153" height="116" viewBox="0 0 153 116">
    <defs>
        <linearGradient id="175duektpa" x1=".006%" x2="99.948%" y1="50.008%" y2="50.008%">
            <stop offset="0%" stop-color="gray" stop-opacity=".25"/>
            <stop offset="54%" stop-color="gray" stop-opacity=".12"/>
            <stop offset="100%" stop-color="gray" stop-opacity=".1"/>
        </linearGradient>
        <linearGradient id="mfeyxc31gb" x1="50.001%" x2="50.001%" y1="100.006%" y2="-.001%">
            <stop offset="0%" stop-color="gray" stop-opacity=".25"/>
            <stop offset="54%" stop-color="gray" stop-opacity=".12"/>
            <stop offset="100%" stop-color="gray" stop-opacity=".1"/>
        </linearGradient>
    </defs>
    <g fill="none" fill-rule="evenodd">
        <g>
            <g transform="translate(-1170 -70) translate(1170 70)">
                <path fill="#1B51E5" fill-rule="nonzero" d="M132.434 37s-11 11.188-4.79 27.79C133.853 81.39 117 109 117 109s.177-.027.516-.087c22.59-4.056 33.814-30.337 21.252-49.86-4.663-7.258-8.504-15.773-6.334-22.053z"/>
                <path stroke="#535461" stroke-width="2" d="M131.592 37s-5.87 13.714 0 24.902S132.6 104.49 117 109"/>
                <path fill="#1B51E5" fill-rule="nonzero" d="M152 83.135s-12.278-1.959-13.398 9.06c-1.12 11.02-23.602 12.546-23.602 12.546s.146.1.422.281c18.57 12.206 36.321 7.775 33.647-8.433-1.002-6.025-.922-12.078 2.931-13.454z"/>
                <path fill="#F5F5F5" fill-rule="nonzero" d="M152 83.135s-12.278-1.959-13.398 9.06c-1.12 11.02-23.602 12.546-23.602 12.546s.146.1.422.281c18.57 12.206 36.321 7.775 33.647-8.433-1.002-6.025-.922-12.078 2.931-13.454z" opacity=".2"/>
                <path stroke="#535461" stroke-width="2" d="M152 83s-9.53 2.129-8.747 10.944c.783 8.814-14.157 19.377-28.253 10.998"/>
                <g fill="url(#175duektpa)" fill-rule="nonzero" opacity=".5">
                    <path d="M36.859 39.793c0-2.812-.445-5.606-1.317-8.281l-2.166-6.662v-.329c.067-4.27-3.29-6.4-4.583-6.169-1.323.237-4.996-1.59-4.996-1.59v.05c-.252-.287-.479-.594-.679-.92 1.282-.925 2.133-2.324 2.361-3.88.228-1.556-.186-3.137-1.15-4.386.398-.296.7-.698.873-1.16.3-.836.07-1.79-.417-2.535-.207-.31-.45-.597-.722-.854-.413-.405-.864-.771-1.347-1.092-1.205-.827-2.528-1.537-3.973-1.79-.25-.058-.51-.058-.76 0-.217.087-.423.197-.615.33-.99.558-2.221.316-3.362.257s-2.528.258-2.89 1.32c-.111.327-.104.682-.18 1.018-.18.824-.821 1.463-1.316 2.148-.495.686-.865 1.611-.453 2.356.14.25.36.482.36.768 0 .206-.122.39-.18.587-.124.448.11.895.472 1.22.155.166.338.304.541.41.573.29 1.232.379 1.815.647.291.136.558.317.79.537.576.598.886 1.4.86 2.225l.121.013v.106c.127.014.26.026.392.032.19.303.406.59.648.854-.04.152-.087.308-.139.465-.424.292-3.894 2.583-7.841 2.032C2.793 16.93.385 35.19.385 35.19.228 36.234.152 37.29.157 38.344c-.018 2.686.55 6.2 3.72 5.682l1.684-.55v9.032s.24 2.474-.601 4.117c-.842 1.644 2.649 1.06 2.649 1.06s.133.138.379.372l-.078.217.103.104c-.459 1.556-1.078 3.06-1.847 4.491l.1.05c-.064.12-.1.18-.1.18s1.296.656 3.08 1.503c1.434 4.805 4.572 15.932 3.54 18.052l.028.06c.193.398 1.273 2.741 1.054 4.887-.196 1.92 2.483 10.64 3.483 13.806l-.473.095 1.685 6.007-.361 3.889s-2.046 5.418 2.768 4.359c4.813-1.06 3.49-5.42 3.49-5.42l.12-8.835s-.463-.256-1.036-.501c-.393-1.055-1.25-3.547-1.25-5.27 0-2.238-1.566-11.9-1.566-11.9V83.764l-.01-.13v-.02c0-.12-.02-.286-.034-.486v-.01c-.18-2.613-.722-11.486-.326-16.112.347-.235.71-.449 1.083-.64 1.172 2.935 4.192 10.867 4 14.195-.24 4.117-.06.884 0 .358.017-.163.03.034.035.476V83.137c0 .358 0 .755-.012 1.169v.25c0 .253 0 .51-.013.772 0 .358-.014.705-.022 1.065-.018.806-.041 1.62-.07 2.383 0 .085-.003.169-.009.252l-.02.49-.022.47-.023.442c-.009.168-.02.33-.029.483l-.654-.093-.139 1.49c-.219 2.364.09 4.748.903 6.981.224.612.397 1.119.435 1.3.121.589 0 4.833 0 4.833s.723 5.537 4.094 4.475c1.516-.478 2.253-1.931 2.605-3.388.39-1.69.245-3.457-.417-5.061-.479-1.192-.968-2.864-.623-4.157.601-2.237.601-5.418.601-5.418l-.372-.052c.093-.175.177-.354.251-.537 0 0-.12-8.13.963-9.19.595-.583.541-1.984.36-3.13-.257-1.658-.318-3.34-.18-5.012.074-.861.18-1.612.305-1.878.318-.623.636-6.903-.77-9.925l.288-.09-.045-.221.045-.015c.212.562.453 1.112.722 1.65.072.054.153.095.24.117 3.899-.678 4.056-4.285 3.84-6.254.164.078.254.129.254.129l.36-5.192c.371-.829.508-1.887.5-3.03.015-4.09-1.963-9.452-1.963-9.452zM32.56 54.549c-.267-2.261-.637-4.39-.637-4.39l-1.806-6.362v-2.316l2.864 10.597-.42 2.47z"/>
                </g>
                <path fill="#5A5773" fill-rule="nonzero" d="M25.174 89l-.117 1.395c-.184 2.216.077 4.449.764 6.544.187.575.334 1.048.365 1.218.1.553 0 4.524 0 4.524s.608 5.186 3.443 4.193c1.275-.446 1.89-1.81 2.192-3.174.327-1.582.204-3.235-.353-4.738-.403-1.117-.816-2.687-.524-3.893.507-2.096.507-5.074.507-5.074L25.174 89z"/>
                <path fill="#605D82" fill-rule="nonzero" d="M21 63.052s4.447 10.983 4.218 15.028c-.229 4.044-.057.866 0 .347.101-.926 0 10.066-.342 11.325 0 0 4.676 3.467 6.5-1.156 0 0-.113-7.976.911-9.017.564-.572.51-1.949.343-3.072-.246-1.625-.306-3.274-.178-4.913.07-.845.165-1.589.29-1.843.342-.693.684-8.554-1.37-10.751L21 63.052z"/>
                <path fill="#000" fill-rule="nonzero" d="M26.226 89.752c.326-1.271.422-12.258.326-11.327-.054.52-.218 3.7 0-.347.217-4.047-4.01-15.03-4.01-15.03L32 59.167c-.044-.06-.09-.116-.135-.168L22 63.047s4.228 10.986 4.01 15.031c-.217 4.045-.053.867 0 .347.097-.926 0 10.068-.325 11.327 0 0 1.775 1.384 3.52 1.237-1.553-.124-2.979-1.237-2.979-1.237z" opacity=".1"/>
                <path fill="#5A5773" fill-rule="nonzero" d="M17 99.93l1.522 5.874-.327 3.8s-1.848 5.298 2.501 4.261 3.154-5.297 3.154-5.297l.108-8.638s-1.74-1.037-2.501-.92c-.76.116-4.457.92-4.457.92z"/>
                <path fill="#605D82" fill-rule="nonzero" d="M10 61s5.11 17.042 3.889 19.673c0 0 1.221 2.516 1 4.802C14.668 87.76 18.444 100 18.444 100L24 98.97s-1.334-3.43-1.334-5.604c0-2.173-1.444-11.56-1.444-11.56s-1.221-17.158.223-18.988L10 61z"/>
                <g fill="#000" fill-rule="nonzero" opacity=".1">
                    <path d="M11.03 3.344c-.91 3.86.095 18.065.095 18.065s1.427 9.32 1.427 11.488c0 1.65.767 4.025 1.13 5.057l.298-.055s-1.319-3.41-1.319-5.569c0-2.16-1.427-11.488-1.427-11.488S10.316 7.86 11.03 3.344zM3.988 19.702l.028.058c.008-.058.017-.12.022-.177-.015.04-.031.08-.05.119zM11.207 2.517c.05-.196.134-.381.247-.546L.145.152s.067.22.181.615l10.88 1.75z" transform="translate(10 61)"/>
                </g>
                <path fill="#A1616A" fill-rule="nonzero" d="M36.75 55s1.564 6.997-3.127 8c-.076-.024-.147-.066-.21-.124 0 0-2.71-6.376-.625-8.876l3.962 1zM16.197 13s.345 4.904-3.448 7.24C8.957 22.579 20.793 29 20.793 29L27 18.955s-2.642.347-4.25-4.32L16.197 13z"/>
                <path fill="#000" fill-rule="nonzero" d="M13.079 21s5.744 12.127 10.925.687L32 61.955s-12.39 3.89-12.5 5.72C19.388 69.507 7 62.988 7 62.988s2.702-5.035 2.028-8.123C8.354 51.776 13.078 21 13.078 21z" opacity=".1"/>
                <path fill="#E1E7EF" fill-rule="nonzero" d="M13.079 19s5.744 12.127 10.925.687L32 59.955s-12.39 3.89-12.5 5.72c-.111 1.831-12.5-4.69-12.5-4.69s2.702-5.034 2.028-8.122C8.354 49.775 13.078 19 13.078 19z"/>
                <path fill="#5A5773" fill-rule="nonzero" d="M18.31 102s-1.44-3 1.884-3c3.325 0 2.772 2.69 2.772 2.69l-4.655.31zM27.242 94s-1.227-2.904 1.84-2.998c3.068-.093 1.535 2.622 1.535 2.622L27.242 94z"/>
                <path fill="#000" fill-rule="nonzero" d="M24 17s3.426 1.81 4.663 1.572c1.237-.24 4.494 1.979 4.27 6.404l2.03 6.603c.812 2.647 1.225 5.408 1.223 8.186 0 0 2.922 8.384 1.35 12.11L37.197 57s-2.584-1.514-5.282-1.048l.68-4.185-3.04-11.88L24.5 27.192 24 17z" opacity=".1"/>
                <path fill="#67647E" fill-rule="nonzero" d="M24 17s3.426 1.81 4.663 1.572c1.237-.24 4.494 1.979 4.27 6.404l2.03 6.603c.812 2.647 1.225 5.408 1.223 8.186 0 0 2.922 8.384 1.35 12.11L37.197 57s-2.584-1.514-5.282-1.048l.675-4.192-3.035-11.877-5.051-12.694L24 17z"/>
                <path fill="#000" fill-rule="nonzero" d="M29.22 30.893v13.074l1.849 6.248s1.231 6.825.862 8.909c-.37 2.083-6.282 2.545-7.883.81-1.602-1.737-.74-16.552-.74-16.552L23 21.694l.247-.694 5.974 9.893z" opacity=".1"/>
                <path fill="#67647E" fill-rule="nonzero" d="M29.22 30.131v12.97L31.07 49.3s1.231 6.772.862 8.838c-.37 2.067-6.282 2.526-7.883.804-1.602-1.723-.74-16.42-.74-16.42L23 21l6.22 9.131z"/>
                <path fill="#000" fill-rule="nonzero" d="M6 41.352l3.576 11.292-1.677 4.822s7.933 8.51 12.961 4.425c0 0 .56-17.361-.56-21.446-1.118-4.084-6.48-17.82-6.48-17.82L12.71 19l-5.921 3.403L6 41.353z" opacity=".1"/>
                <path fill="#67647E" fill-rule="nonzero" d="M5.695 41.36v11.114s.23 2.383-.57 3.971c-.8 1.588 2.508 1.021 2.508 1.021s8.094 8.509 13.224 4.425c0 0 .571-17.359-.57-21.443-1.142-4.084-6.613-17.817-6.613-17.817L12.534 19l-6.04 3.403-.799 18.957z"/>
                <path fill="#000" fill-rule="nonzero" d="M15.83 16s-3.446 2.615-7.4 2.033c-3.956-.582-6.215 17.433-6.215 17.433S.745 44.763 5.49 43.95L16 40.346s-2.26-2.441-1.92-5.578l-5.087 2.09.229-9.992L15.83 16z" opacity=".1"/>
                <path fill="#000" fill-rule="nonzero" d="M2.215 33.756s-1.47 10.07 3.276 9.19L16 39.041S13.74 36.4 14.08 33l-5.083 2.267-6.782-1.511z" opacity=".1"/>
                <path fill="#A1616A" fill-rule="nonzero" d="M14 35.618s3.18-4.026 5.522-2.093C21.864 35.458 14.84 39 14.84 39L14 35.618z"/>
                <path fill="#67647E" fill-rule="nonzero" d="M15.83 16s-3.446 2.615-7.4 2.033c-3.956-.582-6.215 17.433-6.215 17.433S.745 44.763 5.49 43.95L16 40.346s-2.26-2.441-1.92-5.578l-5.087 2.093.229-9.995 5.762-4.88L15.83 16z"/>
                <path fill="#000" fill-rule="nonzero" d="M22.156 14.365L16.053 13s.318.328-.053 1.61c.982 1.026 2.19 2.39 3.8 2.39 1.154.002 2.276-.337 3.2-.966-.345-.528-.628-1.087-.844-1.669z" opacity=".1"/>
                <circle cx="20" cy="11" r="6" fill="#A1616A" fill-rule="nonzero"/>
                <path fill="#000" fill-rule="nonzero" d="M21.735 9.398c1.29-.234 2.709-.844 3.14-2.16.278-.843.067-1.801-.385-2.551-.451-.75-1.115-1.328-1.8-1.844-1.112-.833-2.338-1.548-3.677-1.799-.23-.059-.47-.059-.702 0-.2.088-.391.199-.569.332-.914.562-2.052.319-3.112.26-1.06-.06-2.332.26-2.665 1.327-.104.33-.097.686-.173 1.025-.173.83-.76 1.475-1.21 2.166-.452.691-.8 1.626-.42 2.37.13.253.347.485.347.773-.034.204-.092.403-.173.592-.158.612.3 1.23.83 1.52.529.292 1.138.382 1.677.653 1.031.542 1.671 1.676 1.638 2.902.491.06 1.063.092 1.395-.3.15-.174.222-.408.357-.595.173-.243.442-.387.664-.582 1.164-1.02.337-2.428.996-3.526.346-.566.896-.393 1.452-.384.8.02 1.6-.04 2.39-.179z" opacity=".1"/>
                <path fill="#4A4347" fill-rule="nonzero" d="M21.735 9.394c1.29-.234 2.709-.844 3.14-2.16.278-.841.067-1.8-.385-2.55-.451-.75-1.115-1.326-1.8-1.842-1.112-.832-2.338-1.547-3.677-1.798-.23-.059-.47-.059-.702 0-.2.088-.391.199-.569.332-.914.562-2.052.318-3.112.26-1.06-.06-2.332.26-2.665 1.326-.104.33-.097.685-.173 1.024-.173.83-.76 1.474-1.21 2.165-.452.691-.8 1.625-.42 2.37.13.252.347.484.347.772-.034.204-.092.403-.173.591-.158.612.3 1.229.83 1.52.529.291 1.138.381 1.677.652 1.036.542 1.678 1.679 1.643 2.908.491.06 1.064.092 1.396-.299.148-.175.221-.409.356-.595.173-.243.443-.387.664-.582 1.164-1.02.337-2.427.996-3.525.346-.565.896-.392 1.453-.383.798.017 1.597-.045 2.384-.186z"/>
                <path fill="#000" fill-rule="nonzero" d="M28 28s1.504 6.777.821 9.393c-.417 1.522-.355 3.113.179 4.607M9.309 31s-1.038 4.131.691 5" opacity=".1"/>
                <path fill="#000" fill-rule="nonzero" d="M39.5 85c.276 0 .5-.224.5-.5s-.224-.5-.5-.5-.5.224-.5.5.224.5.5.5z"/>
                <g fill="url(#mfeyxc31gb)" fill-rule="nonzero" opacity=".5" transform="translate(25 16)">
                    <path d="M96.823 37.819v-.148L48.528.164c-.062-.046-.148-.046-.21 0L.02 37.671v58.136h.092v.093h96.804V37.764l-.094.055z"/>
                </g>
                <path fill="#FFF" fill-rule="nonzero" d="M120 109L27 109 27 53.731 73.5 18 120 53.731z"/>
                <path fill="#E0E0E0" fill-rule="nonzero" d="M117 107L30 107 30 54.768 73.5 21 117 54.768z"/>
                <path fill="#1B51E5" fill-rule="nonzero" d="M43.241 26.017L97.832 25.887 97.666 95.908 43.075 96.038z" transform="rotate(-14.69 70.454 60.963)"/>
                <path fill="#F5F5F5" fill-rule="nonzero" d="M46 30H101V101H46z"/>
                <path fill="#000" fill-rule="nonzero" d="M27 54L74 82 27 110z" opacity=".05"/>
                <path fill="#FFF" fill-rule="nonzero" d="M27 54L74 82 27 110z"/>
                <path fill="#000" fill-rule="nonzero" d="M120 54L73 82 120 110z" opacity=".05"/>
                <path fill="#FFF" fill-rule="nonzero" d="M120 54L73 82 120 110z"/>
                <path fill="#000" fill-rule="nonzero" d="M27 109L73.5 72 120 109z" opacity=".05"/>
                <path fill="#FFF" fill-rule="nonzero" d="M27 110L73.5 73 120 110z"/>
                <path stroke="#535461" stroke-width="2" d="M35.706 113s-1.793-7.83.337-13.597c.905-2.41 1.178-5.134.777-7.761-.197-1.245-.483-2.464-.853-3.642"/>
                <path fill="#1B51E5" fill-rule="nonzero" d="M38 84.587C38 85.463 36.5 88 36.5 88S35 85.461 35 84.587c0-.877.672-1.587 1.5-1.587s1.5.71 1.5 1.587zM41.745 89.718C41.185 90.555 38 92 38 92s.058-3.407.617-4.243c.58-.786 1.695-.992 2.532-.467.836.525 1.099 1.595.596 2.428zM42.006 98.803c-.833.364-4.006.113-4.006.113s1.654-2.365 2.485-2.73c.542-.262 1.207-.246 1.731.043s.824.804.78 1.342c-.044.538-.424 1.011-.99 1.233v-.001zM39.318 106.154C38.493 106.737 35 107 35 107s1.286-3.118 2.11-3.701c.825-.526 1.936-.34 2.526.422.59.762.45 1.833-.318 2.433zM33.43 92.73C34.069 93.353 37 94 37 94s-.719-2.97-1.35-3.593c-.638-.574-1.606-.536-2.2.085-.592.621-.601 1.607-.02 2.24v-.002zM31.888 100.799c.855.37 4.112.115 4.112.115s-1.698-2.41-2.551-2.781c-.847-.33-1.844-.026-2.263.69-.418.714-.109 1.586.702 1.977v-.001zM31.804 109.175c.801.568 4.196.825 4.196.825s-1.25-3.04-2.051-3.609c-.516-.404-1.222-.504-1.837-.258-.615.245-1.039.796-1.103 1.432-.065.636.24 1.255.795 1.61z"/>
                <path fill="#1B51E5" fill-rule="nonzero" d="M49 33H70V35H49zM49 41H97V43H49zM49 45H97V47H49z" opacity=".5"/>
                <path fill="#1B51E5" fill-rule="nonzero" d="M49 49H97V51H49zM49 55H97V57H49z" opacity=".4"/>
                <path fill="#1B51E5" fill-rule="nonzero" d="M50 59H77V61H50zM49 63H85V65H49z" opacity=".3"/>
            </g>
        </g>
    </g>
</svg>
