<svg xmlns="http://www.w3.org/2000/svg" xmlns:xlink="http://www.w3.org/1999/xlink" width="16" height="16" viewBox="0 0 16 16">
    <defs>
        <path id="q0ciflrlpa" d="M3.542 0c-.503 0-.938.245-1.334.583-.396.339-.76.795-1.083 1.375C.479 3.122 0 4.755 0 6.792c0 1.044.242 2.12.73 2.979.106.187.28.312.416.479-.362.443-.958 1.27-.958 1.27l.958.96s.661-.912 1.083-1.418c.268.115.521.271.833.271 1.144 0 2.336-.5 3.438-1.125.354.271.753.459 1.167.459 1.37 0 2.411-.805 3.146-1.521.213-.209.356-.362.52-.542-.002.182-.007.35.042.563.04.161.083.362.25.541.167.18.466.292.708.292.487 0 .769-.224 1.063-.438.294-.213.573-.468.875-.708C14.878 8.375 15.523 8 16 8V6.667c-1.057 0-1.883.625-2.542 1.146-.312.247-.593.463-.812.625v-.084c.008-.242.044-.513 0-.812-.021-.149-.07-.305-.209-.5-.138-.196-.447-.375-.708-.375-.375 0-.513.161-.646.27-.132.11-.231.222-.354.355-.245.265-.536.586-.854.896-.56.546-1.219.96-1.938 1.062.477-.383.956-.763 1.292-1.188.443-.557.771-1.124.771-1.791 0-.375-.047-.888-.333-1.375C9.38 4.409 8.763 4 8 4c-.82 0-1.568.404-2.02 1.042-.454.638-.647 1.455-.647 2.416 0 .654.149 1.196.354 1.667C4.76 9.612 3.8 10 3.063 10 4.19 8.31 5.333 6.008 5.333 3.208c0-.58.006-1.265-.187-1.896-.097-.315-.25-.635-.521-.895C4.355.157 3.953 0 3.542 0zm0 1.333c.12 0 .125.024.166.063.042.039.091.135.146.312.107.352.146.946.146 1.5 0 2.362-1.01 4.43-2.02 5.98-.024-.04-.06-.042-.084-.084-.347-.607-.563-1.49-.563-2.312 0-1.831.438-3.25.959-4.188.26-.469.528-.812.77-1.02.243-.209.448-.25.48-.25zm4.458 4c.37 0 .424.089.52.25.097.162.147.461.147.688 0 .167-.141.555-.48.979-.294.37-.742.753-1.229 1.125-.117-.268-.291-.464-.291-.917 0-.773.164-1.338.396-1.666.231-.328.492-.459.937-.459zm-8 9.334V16h16v-1.333H0z"/>
    </defs>
    <g fill="none" fill-rule="evenodd">
        <g>
            <g>
                <g transform="translate(-912 -813) translate(530 793) translate(382 20)">
                    <mask id="j7o3x8ypab" fill="#fff">
                        <use xlink:href="#q0ciflrlpa"/>
                    </mask>
                    <use fill="#000" fill-rule="nonzero" xlink:href="#q0ciflrlpa"/>
                    <g fill="#000" fill-opacity=".54" mask="url(#j7o3x8ypab)">
                        <path d="M0 0H16V16H0z"/>
                    </g>
                </g>
            </g>
        </g>
    </g>
</svg>
